<svg viewBox="0 0 343.82 124.12" xmlns="http://www.w3.org/2000/svg" xmlns:xlink="http://www.w3.org/1999/xlink" id="Layer_1" overflow="hidden"><defs><linearGradient x1="46.6" y1="-30.46" x2="178.22" y2="105.75" gradientUnits="userSpaceOnUse" id="linear-gradient"><stop offset="0" stop-color="#FFFFFF"/><stop offset="0.14" stop-color="#FAD8C0"/><stop offset="0.39" stop-color="#F2934F"/><stop offset="0.51" stop-color="#EF7823"/></linearGradient></defs><rect x="0" y="7.65" rx="54.66" ry="54.66" width="339.09" height="116.47" fill="#231F20" opacity="0.56"/><rect x="3.73" y="1" rx="54.66" ry="54.66" width="339.09" height="116.47" stroke="#9A2B20" stroke-width="2" stroke-miterlimit="10" fill="#EF7823"/><path d="M229.88 4.71C176.23 7.71 82.35 13.35 54.11 42.82 35.98 61.75 32.63 84.1 38.05 109.53 18.29 101.06 12.01 84.58 9.46 77.06 6.49 68.3 1.64 31.48 28.35 14.06 42.84 4.61 53.06 5.24 53.06 5.24 53.06 5.24 185.24 4.71 229.88 4.71Z" fill="url(#linear-gradient)" opacity="0.78"/><g><g><path d="M59.18 69.58 59.18 43.07 65.46 43.07 65.46 69.58 59.18 69.58Z" fill="#A32713"/><path d="M81.01 69.58 81.01 57.4C81.01 55.31 80.23 54.27 78.67 54.27 76.93 54.27 76.07 55.67 76.07 58.47L76.07 69.58 70.05 69.58 70.05 53.93C70.05 52.18 70 50.79 69.91 49.77L75.38 49.77C75.48 51.49 75.52 52.6 75.52 53.09L75.57 53.09C76.59 50.67 78.45 49.46 81.16 49.46 85.05 49.46 86.99 51.84 86.99 56.6L86.99 69.57 81.02 69.57Z" fill="#A32713"/><path d="M90.54 64.3C92.01 65.21 93.65 65.66 95.48 65.66 96.72 65.66 97.57 65.46 98.01 65.06 98.31 64.79 98.46 64.37 98.46 63.79 98.46 63.41 98.09 63.04 97.36 62.69 97.55 62.79 96.53 62.37 94.3 61.45 91.56 60.37 90.19 58.34 90.19 55.38 90.19 53.98 90.69 52.73 91.69 51.63 93.01 50.18 94.97 49.46 97.57 49.46 99.72 49.46 101.57 49.72 103.11 50.25L102.97 54.74C101.09 54.02 99.47 53.67 98.12 53.67 97.39 53.67 96.81 53.83 96.4 54.15 96.05 54.42 95.87 54.76 95.87 55.15 95.87 55.72 96.16 56.19 96.73 56.56 97.18 56.85 98.27 57.32 100.03 57.99 102.8 59.03 104.19 60.94 104.19 63.75 104.19 65.84 103.47 67.4 102.04 68.46 100.77 69.4 99.04 69.87 96.86 69.87 94.28 69.87 92.11 69.56 90.34 68.94L90.53 64.31Z" fill="#A32713"/><path d="M119.09 69.34C118.21 69.69 116.82 69.87 114.91 69.87 113.19 69.87 111.83 69.44 110.83 68.58 109.68 67.59 109.11 66.09 109.11 64.07L109.11 53.99 105.84 53.99 105.84 49.79 109.26 49.79 109.26 45.73 115.09 43.87 115.09 49.79 118.98 49.79 118.98 53.99 115.09 53.99 115.09 63.09C115.09 64.75 115.77 65.57 117.14 65.57 117.86 65.57 118.51 65.43 119.1 65.14L119.1 69.34Z" fill="#A32713"/><path d="M133.11 69.58 132.97 66.83 132.92 66.83C132.74 67.51 132.16 68.18 131.15 68.81 130.02 69.51 128.79 69.86 127.47 69.86 125.62 69.86 124.13 69.31 123 68.21 121.87 67.11 121.3 65.65 121.3 63.84 121.3 59.41 124.58 57.2 131.14 57.2L132.96 57.2C132.96 54.68 131.73 53.43 129.28 53.43 127.54 53.43 125.7 54 123.76 55.15L123.5 50.75C125.97 49.89 128.09 49.46 129.88 49.46 133.13 49.46 135.42 50.12 136.76 51.44 137.87 52.57 138.43 54.34 138.43 56.74L138.43 64C138.43 66.39 138.48 68.24 138.57 69.57L133.1 69.57ZM132.97 60.05C131.2 60.05 129.87 60.21 128.98 60.53 127.53 61.07 126.81 62.07 126.81 63.52 126.81 65.26 127.67 66.12 129.39 66.12 130.14 66.12 130.81 65.9 131.4 65.45 132.45 64.64 132.98 63.21 132.98 61.17L132.98 60.05Z" fill="#A32713"/><path d="M154.25 66.12C153.98 66.9 153.49 67.61 152.77 68.25 151.75 69.14 150.51 69.59 149.04 69.59 147.07 69.59 145.47 68.87 144.26 67.44 142.79 65.72 142.06 63.14 142.06 59.7 142.06 56.52 142.67 54.02 143.88 52.22 145.09 50.39 146.81 49.47 149.04 49.47 151.57 49.47 153.36 50.63 154.39 52.96L154.49 52.96 154.63 49.78 160.29 49.78C160.19 51.6 160.15 53.08 160.15 54.22L160.15 67.19C160.15 69.94 159.73 72.11 158.88 73.69 157.32 76.59 154.38 78.04 150.07 78.04 147.9 78.04 145.52 77.63 142.93 76.82L143.14 71.92C145.34 73.1 147.42 73.69 149.4 73.69 151.53 73.69 152.95 72.93 153.65 71.42 154.11 70.42 154.34 68.65 154.34 66.12L154.24 66.12ZM154.18 59.65C154.18 58.17 153.99 56.92 153.61 55.9 153.1 54.53 152.3 53.85 151.22 53.85 149.26 53.85 148.28 55.78 148.28 59.65 148.28 63.52 149.24 65.38 151.17 65.38 153.1 65.38 154.18 63.47 154.18 59.65Z" fill="#A32713"/><path d="M164.35 69.58 164.35 53.93C164.35 52.18 164.3 50.79 164.21 49.77L169.68 49.77 169.82 53.33 169.87 53.33C170.7 51.91 171.34 51.01 171.8 50.61 172.66 49.85 173.86 49.46 175.41 49.46L176.29 49.46 176.29 55C175.72 54.87 175.05 54.81 174.28 54.81 172.69 54.81 171.6 55.43 171.01 56.67 170.58 57.55 170.37 58.89 170.37 60.71L170.37 69.57 164.35 69.57Z" fill="#A32713"/><path d="M190.08 69.58 189.94 66.83 189.89 66.83C189.71 67.51 189.13 68.18 188.12 68.81 186.99 69.51 185.76 69.86 184.44 69.86 182.59 69.86 181.1 69.31 179.97 68.21 178.84 67.11 178.27 65.65 178.27 63.84 178.27 59.41 181.55 57.2 188.11 57.2L189.93 57.2C189.93 54.68 188.7 53.43 186.25 53.43 184.51 53.43 182.67 54 180.73 55.15L180.47 50.75C182.94 49.89 185.06 49.46 186.85 49.46 190.1 49.46 192.39 50.12 193.73 51.44 194.84 52.57 195.4 54.34 195.4 56.74L195.4 64C195.4 66.39 195.45 68.24 195.54 69.57L190.07 69.57ZM189.94 60.05C188.17 60.05 186.84 60.21 185.95 60.53 184.5 61.07 183.78 62.07 183.78 63.52 183.78 65.26 184.64 66.12 186.36 66.12 187.11 66.12 187.78 65.9 188.37 65.45 189.42 64.64 189.95 63.21 189.95 61.17L189.95 60.05Z" fill="#A32713"/><path d="M221.03 69.58 221.03 57.4C221.03 55.31 220.27 54.27 218.74 54.27 217.07 54.27 216.23 55.2 216.23 57.06L216.23 69.58 210.28 69.58 210.28 57.4C210.28 55.31 209.58 54.27 208.18 54.27 206.41 54.27 205.53 55.67 205.53 58.47L205.53 69.58 199.51 69.58 199.51 53.93C199.51 52.18 199.46 50.79 199.37 49.77L204.84 49.77C204.94 51.49 204.98 52.6 204.98 53.09L205.03 53.09C206.05 50.67 207.91 49.46 210.62 49.46 213.12 49.46 214.83 50.57 215.76 52.8 216.8 50.57 218.6 49.46 221.18 49.46 225.07 49.46 227.01 51.84 227.01 56.6L227.01 69.57 221.04 69.57Z" fill="#A32713"/></g><g><path d="M59.95 67.86 59.95 41.35 66.23 41.35 66.23 67.86 59.95 67.86Z" fill="#FFFFFF"/><path d="M81.78 67.86 81.78 55.68C81.78 53.59 81 52.55 79.44 52.55 77.7 52.55 76.84 53.95 76.84 56.75L76.84 67.86 70.82 67.86 70.82 52.21C70.82 50.46 70.77 49.07 70.68 48.05L76.15 48.05C76.25 49.77 76.29 50.88 76.29 51.37L76.34 51.37C77.36 48.95 79.22 47.74 81.93 47.74 85.82 47.74 87.76 50.12 87.76 54.88L87.76 67.85 81.79 67.85Z" fill="#FFFFFF"/><path d="M91.31 62.58C92.78 63.49 94.42 63.94 96.25 63.94 97.49 63.94 98.34 63.74 98.78 63.34 99.08 63.07 99.23 62.65 99.23 62.07 99.23 61.69 98.86 61.32 98.13 60.97 98.32 61.07 97.3 60.65 95.07 59.73 92.33 58.65 90.96 56.62 90.96 53.66 90.96 52.26 91.46 51.01 92.46 49.91 93.78 48.46 95.74 47.74 98.34 47.74 100.49 47.74 102.34 48 103.88 48.53L103.74 53.02C101.86 52.3 100.24 51.95 98.89 51.95 98.16 51.95 97.58 52.11 97.17 52.43 96.82 52.7 96.64 53.04 96.64 53.43 96.64 54 96.93 54.47 97.5 54.84 97.95 55.13 99.04 55.6 100.8 56.27 103.57 57.31 104.96 59.22 104.96 62.03 104.96 64.12 104.24 65.68 102.81 66.74 101.54 67.68 99.81 68.15 97.63 68.15 95.05 68.15 92.88 67.84 91.11 67.22L91.3 62.59Z" fill="#FFFFFF"/><path d="M119.86 67.62C118.98 67.97 117.59 68.15 115.68 68.15 113.96 68.15 112.6 67.72 111.6 66.86 110.45 65.87 109.88 64.37 109.88 62.35L109.88 52.27 106.61 52.27 106.61 48.07 110.03 48.07 110.03 44.01 115.86 42.15 115.86 48.07 119.75 48.07 119.75 52.27 115.86 52.27 115.86 61.37C115.86 63.03 116.54 63.85 117.91 63.85 118.63 63.85 119.28 63.71 119.87 63.42L119.87 67.62Z" fill="#FFFFFF"/><path d="M133.88 67.86 133.74 65.11 133.69 65.11C133.51 65.79 132.93 66.46 131.92 67.09 130.79 67.79 129.56 68.14 128.24 68.14 126.39 68.14 124.9 67.59 123.77 66.49 122.64 65.39 122.07 63.93 122.07 62.12 122.07 57.69 125.35 55.48 131.91 55.48L133.73 55.48C133.73 52.96 132.5 51.71 130.05 51.71 128.31 51.71 126.47 52.28 124.53 53.43L124.27 49.03C126.74 48.17 128.86 47.74 130.65 47.74 133.9 47.74 136.19 48.4 137.53 49.72 138.64 50.85 139.2 52.62 139.2 55.02L139.2 62.28C139.2 64.67 139.25 66.52 139.34 67.85L133.87 67.85ZM133.74 58.33C131.97 58.33 130.64 58.49 129.75 58.81 128.3 59.35 127.58 60.35 127.58 61.8 127.58 63.54 128.44 64.4 130.16 64.4 130.91 64.4 131.58 64.18 132.17 63.73 133.22 62.92 133.75 61.49 133.75 59.45L133.75 58.33Z" fill="#FFFFFF"/><path d="M155.02 64.4C154.75 65.18 154.26 65.89 153.54 66.53 152.52 67.42 151.28 67.87 149.81 67.87 147.84 67.87 146.24 67.15 145.03 65.72 143.56 64 142.83 61.42 142.83 57.98 142.83 54.8 143.44 52.3 144.65 50.5 145.86 48.67 147.58 47.75 149.81 47.75 152.34 47.75 154.13 48.91 155.16 51.24L155.26 51.24 155.4 48.06 161.06 48.06C160.96 49.88 160.92 51.36 160.92 52.5L160.92 65.47C160.92 68.22 160.5 70.39 159.65 71.97 158.09 74.87 155.15 76.32 150.84 76.32 148.67 76.32 146.29 75.91 143.7 75.1L143.91 70.2C146.11 71.38 148.19 71.97 150.17 71.97 152.3 71.97 153.72 71.21 154.42 69.7 154.88 68.7 155.11 66.93 155.11 64.4L155.01 64.4ZM154.95 57.93C154.95 56.45 154.76 55.2 154.38 54.18 153.87 52.81 153.07 52.13 151.99 52.13 150.03 52.13 149.05 54.06 149.05 57.93 149.05 61.8 150.01 63.66 151.94 63.66 153.87 63.66 154.95 61.75 154.95 57.93Z" fill="#FFFFFF"/><path d="M165.12 67.86 165.12 52.21C165.12 50.46 165.07 49.07 164.98 48.05L170.45 48.05 170.59 51.61 170.64 51.61C171.47 50.19 172.11 49.29 172.57 48.89 173.43 48.13 174.63 47.74 176.18 47.74L177.06 47.74 177.06 53.28C176.49 53.15 175.82 53.09 175.05 53.09 173.46 53.09 172.37 53.71 171.78 54.95 171.35 55.83 171.14 57.17 171.14 58.99L171.14 67.85 165.12 67.85Z" fill="#FFFFFF"/><path d="M190.85 67.86 190.71 65.11 190.66 65.11C190.48 65.79 189.9 66.46 188.89 67.09 187.76 67.79 186.53 68.14 185.21 68.14 183.36 68.14 181.87 67.59 180.74 66.49 179.61 65.39 179.04 63.93 179.04 62.12 179.04 57.69 182.32 55.48 188.88 55.48L190.7 55.48C190.7 52.96 189.47 51.71 187.02 51.71 185.28 51.71 183.44 52.28 181.5 53.43L181.24 49.03C183.71 48.17 185.83 47.74 187.62 47.74 190.87 47.74 193.16 48.4 194.5 49.72 195.61 50.85 196.17 52.62 196.17 55.02L196.17 62.28C196.17 64.67 196.22 66.52 196.31 67.85L190.84 67.85ZM190.71 58.33C188.94 58.33 187.61 58.49 186.72 58.81 185.27 59.35 184.55 60.35 184.55 61.8 184.55 63.54 185.41 64.4 187.13 64.4 187.88 64.4 188.55 64.18 189.14 63.73 190.19 62.92 190.72 61.49 190.72 59.45L190.72 58.33Z" fill="#FFFFFF"/><path d="M221.81 67.86 221.81 55.68C221.81 53.59 221.05 52.55 219.52 52.55 217.85 52.55 217.01 53.48 217.01 55.34L217.01 67.86 211.06 67.86 211.06 55.68C211.06 53.59 210.36 52.55 208.96 52.55 207.19 52.55 206.31 53.95 206.31 56.75L206.31 67.86 200.29 67.86 200.29 52.21C200.29 50.46 200.24 49.07 200.15 48.05L205.62 48.05C205.72 49.77 205.76 50.88 205.76 51.37L205.81 51.37C206.83 48.95 208.69 47.74 211.4 47.74 213.9 47.74 215.61 48.85 216.54 51.08 217.58 48.85 219.38 47.74 221.96 47.74 225.85 47.74 227.79 50.12 227.79 54.88L227.79 67.85 221.82 67.85Z" fill="#FFFFFF"/></g></g><g><g><path d="M290.83 79.5 275.16 79.5C268.34 79.5 262.79 73.95 262.79 67.13L262.79 51.46C262.79 44.64 268.34 39.09 275.16 39.09L290.83 39.09C297.65 39.09 303.2 44.64 303.2 51.46L303.2 67.13C303.2 73.95 297.65 79.5 290.83 79.5ZM275.16 42.11C270.01 42.11 265.81 46.3 265.81 51.46L265.81 67.13C265.81 72.28 270 76.48 275.16 76.48L290.83 76.48C295.98 76.48 300.18 72.29 300.18 67.13L300.18 51.46C300.18 46.31 295.99 42.11 290.83 42.11L275.16 42.11Z" fill="#FFFFFF"/><path d="M283 69.51C277.36 69.51 272.78 64.92 272.78 59.29 272.78 53.66 277.37 49.07 283 49.07 288.63 49.07 293.22 53.66 293.22 59.29 293.22 64.92 288.63 69.51 283 69.51ZM283 52.16C279.07 52.16 275.88 55.36 275.88 59.28 275.88 63.2 279.08 66.4 283 66.4 286.92 66.4 290.12 63.2 290.12 59.28 290.12 55.36 286.92 52.16 283 52.16Z" fill="#FFFFFF"/><path d="M297 47.95C297 49.42 295.81 50.61 294.34 50.61 292.87 50.61 291.68 49.42 291.68 47.95 291.68 46.48 292.87 45.29 294.34 45.29 295.81 45.29 297 46.48 297 47.95Z" fill="#FFFFFF"/></g><path d="M298.01 96.67 267.98 96.67C255.65 96.67 245.61 86.64 245.61 74.3L245.61 44.27C245.61 31.94 255.64 21.9 267.98 21.9L298.01 21.9C310.34 21.9 320.38 31.93 320.38 44.27L320.38 74.3C320.38 86.63 310.35 96.67 298.01 96.67ZM267.98 25.01C257.36 25.01 248.72 33.65 248.72 44.27L248.72 74.3C248.72 84.92 257.36 93.56 267.98 93.56L298.01 93.56C308.63 93.56 317.27 84.92 317.27 74.3L317.27 44.27C317.27 33.65 308.63 25.01 298.01 25.01L267.98 25.01Z" fill="#FFFFFF"/></g></svg>