<svg viewBox="0 0 342.85 125.44" xmlns="http://www.w3.org/2000/svg" xmlns:xlink="http://www.w3.org/1999/xlink" id="Layer_1" overflow="hidden"><defs><linearGradient x1="19.79" y1="-27.85" x2="190.35" y2="100.23" gradientUnits="userSpaceOnUse" id="linear-gradient"><stop offset="0" stop-color="#FFFFFF"/><stop offset="0.09" stop-color="#EAEDD8"/><stop offset="0.38" stop-color="#ADBC67"/><stop offset="0.51" stop-color="#95A93B"/></linearGradient></defs><rect x="0" y="8.97" rx="54.66" ry="54.66" width="339.09" height="116.47" fill="#231F20" opacity="0.56"/><rect x="3.26" y="0.5" rx="54.66" ry="54.66" width="339.09" height="116.47" stroke="#294D24" stroke-miterlimit="10" fill="#95A93B"/><path d="M229.41 4.21C175.76 7.21 81.88 12.85 53.64 42.32 35.51 61.25 32.16 83.6 37.58 109.03 17.82 100.56 11.54 84.08 8.99 76.56 6.02 67.8 1.17 30.98 27.88 13.56 42.37 4.11 52.59 4.74 52.59 4.74 52.59 4.74 184.77 4.21 229.41 4.21Z" fill="url(#linear-gradient)" opacity="0.78"/><g><path d="M42.89 68.86 42.89 43.62 51.01 43.62C53.74 43.62 55.85 44.27 57.33 45.58 58.86 46.96 59.63 48.98 59.63 51.63 59.63 53.96 59 55.84 57.74 57.27 56.35 58.85 54.34 59.63 51.71 59.63L48.87 59.63 48.87 68.86 42.89 68.86ZM50.49 55.22C51.46 55.22 52.23 54.91 52.81 54.29 53.42 53.65 53.72 52.75 53.72 51.58 53.72 49.18 52.54 47.99 50.17 47.99L48.62 47.99 48.62 55.22 50.48 55.22Z"/><path d="M62.83 68.86 62.83 41.71 68.52 41.71 68.52 68.86 62.83 68.86Z"/><path d="M83.14 68.86 83 66.24 82.95 66.24C82.78 66.89 82.22 67.52 81.27 68.13 80.19 68.8 79.03 69.13 77.77 69.13 76.01 69.13 74.59 68.61 73.52 67.56 72.45 66.51 71.91 65.13 71.91 63.4 71.91 59.19 75.03 57.08 81.28 57.08L83.01 57.08C83.01 54.68 81.84 53.49 79.51 53.49 77.86 53.49 76.11 54.04 74.26 55.13L74.01 50.95C76.36 50.13 78.38 49.72 80.08 49.72 83.17 49.72 85.36 50.35 86.63 51.61 87.69 52.69 88.22 54.37 88.22 56.66L88.22 63.57C88.22 65.84 88.27 67.61 88.36 68.87L83.15 68.87ZM83 59.79C81.32 59.79 80.05 59.94 79.2 60.24 77.82 60.76 77.13 61.7 77.13 63.08 77.13 64.73 77.95 65.56 79.59 65.56 80.3 65.56 80.94 65.35 81.5 64.92 82.5 64.15 83 62.79 83 60.85L83 59.78Z"/><path d="M92.21 72.15C92.7 72.47 93.3 72.63 94.03 72.63 94.91 72.63 95.62 72.21 96.17 71.36 96.64 70.62 96.87 69.78 96.87 68.86L90.3 50.01 96.21 50.01 99.76 62.77 99.81 62.77 103.15 50.01 108.7 50.01 102.04 70.59C101.34 72.79 100.47 74.4 99.42 75.41 98.37 76.41 97.06 76.91 95.49 76.91 94.22 76.91 93.06 76.74 92.03 76.41L92.21 72.16Z"/><path d="M119.86 66.38C118.36 64.64 117.61 62.29 117.61 59.35 117.61 56.41 118.36 54.14 119.86 52.41 121.44 50.61 123.63 49.7 126.45 49.7 129.27 49.7 131.47 50.6 133.04 52.41 134.54 54.14 135.29 56.45 135.29 59.35 135.29 62.25 134.54 64.63 133.04 66.38 131.46 68.21 129.27 69.13 126.45 69.13 123.63 69.13 121.43 68.21 119.86 66.38ZM129.39 59.35C129.39 55.53 128.41 53.62 126.46 53.62 124.51 53.62 123.53 55.53 123.53 59.35 123.53 63.17 124.51 65.22 126.46 65.22 128.41 65.22 129.39 63.26 129.39 59.35Z"/><path d="M149.97 68.63C149.14 68.96 147.81 69.13 145.99 69.13 144.35 69.13 143.06 68.72 142.1 67.9 141.01 66.96 140.46 65.53 140.46 63.6L140.46 54 137.34 54 137.34 50 140.59 50 140.59 46.13 146.14 44.36 146.14 50 149.85 50 149.85 54 146.14 54 146.14 62.66C146.14 64.24 146.79 65.02 148.1 65.02 148.78 65.02 149.4 64.88 149.96 64.61L149.96 68.61Z"/><path d="M163.32 68.86 163.32 57.26C163.32 55.27 162.58 54.28 161.09 54.28 159.44 54.28 158.61 55.61 158.61 58.28L158.61 68.85 152.88 68.85 152.88 41.7 158.61 41.7 158.61 52.77 158.66 52.77C158.98 51.77 159.61 51 160.55 50.45 161.4 49.95 162.37 49.7 163.46 49.7 167.16 49.7 169.01 51.97 169.01 56.5L169.01 68.85 163.32 68.85Z"/><path d="M188.06 68.06C186.18 68.77 184.19 69.13 182.08 69.13 178.9 69.13 176.49 68.22 174.85 66.4 173.32 64.72 172.55 62.37 172.55 59.35 172.55 56.68 173.26 54.45 174.69 52.64 176.24 50.68 178.3 49.71 180.88 49.71 186.35 49.71 189.09 52.98 189.09 59.53L189.09 60.94 177.95 60.94C177.95 62.14 178.33 63.13 179.09 63.92 179.92 64.78 181.1 65.22 182.61 65.22 184.4 65.22 186.18 64.73 187.95 63.74L188.06 68.06ZM183.85 57.83C183.85 54.75 182.86 53.21 180.87 53.21 178.88 53.21 177.94 54.75 177.94 57.83L183.85 57.83Z"/><path d="M192.43 68.86 192.43 53.97C192.43 52.3 192.38 50.98 192.29 50.01L197.5 50.01 197.64 53.4 197.69 53.4C198.48 52.05 199.09 51.19 199.53 50.81 200.35 50.08 201.49 49.72 202.96 49.72L203.8 49.72 203.8 55C203.25 54.88 202.62 54.82 201.89 54.82 200.37 54.82 199.34 55.41 198.77 56.59 198.36 57.42 198.16 58.7 198.16 60.43L198.16 68.87 192.43 68.87Z"/><path d="M224.81 65.56C224.55 66.3 224.08 66.98 223.4 67.58 222.43 68.43 221.25 68.85 219.85 68.85 217.97 68.85 216.45 68.17 215.3 66.8 213.91 65.16 213.21 62.71 213.21 59.43 213.21 56.4 213.79 54.03 214.94 52.31 216.09 50.57 217.73 49.69 219.85 49.69 222.26 49.69 223.96 50.8 224.94 53.01L225.03 53.01 225.17 49.99 230.56 49.99C230.47 51.72 230.42 53.13 230.42 54.22L230.42 66.57C230.42 69.19 230.02 71.25 229.21 72.76 227.72 75.52 224.93 76.9 220.82 76.9 218.76 76.9 216.49 76.51 214.02 75.74L214.22 71.08C216.31 72.2 218.3 72.76 220.18 72.76 222.21 72.76 223.56 72.04 224.23 70.6 224.67 69.64 224.89 67.96 224.89 65.55L224.8 65.55ZM224.74 59.4C224.74 57.99 224.56 56.8 224.19 55.83 223.7 54.53 222.95 53.87 221.92 53.87 220.06 53.87 219.12 55.71 219.12 59.4 219.12 63.09 220.04 64.86 221.87 64.86 223.7 64.86 224.74 63.04 224.74 59.4Z"/><path d="M244.87 68.86 244.73 66.24 244.68 66.24C244.51 66.89 243.95 67.52 243 68.13 241.92 68.8 240.76 69.13 239.5 69.13 237.74 69.13 236.32 68.61 235.25 67.56 234.18 66.51 233.64 65.13 233.64 63.4 233.64 59.19 236.76 57.08 243.01 57.08L244.74 57.08C244.74 54.68 243.57 53.49 241.24 53.49 239.59 53.49 237.84 54.04 235.99 55.13L235.74 50.95C238.09 50.13 240.11 49.72 241.81 49.72 244.9 49.72 247.09 50.35 248.36 51.61 249.42 52.69 249.95 54.37 249.95 56.66L249.95 63.57C249.95 65.84 250 67.61 250.09 68.87L244.88 68.87ZM244.73 59.79C243.05 59.79 241.78 59.94 240.93 60.24 239.55 60.76 238.86 61.7 238.86 63.08 238.86 64.73 239.68 65.56 241.32 65.56 242.03 65.56 242.67 65.35 243.23 64.92 244.23 64.15 244.73 62.79 244.73 60.85L244.73 59.78Z"/><path d="M274.34 68.86 274.34 57.26C274.34 55.27 273.61 54.28 272.16 54.28 270.57 54.28 269.77 55.17 269.77 56.94L269.77 68.86 264.11 68.86 264.11 57.26C264.11 55.27 263.44 54.28 262.11 54.28 260.43 54.28 259.59 55.61 259.59 58.28L259.59 68.85 253.86 68.85 253.86 53.96C253.86 52.29 253.81 50.97 253.72 50L258.93 50C259.02 51.64 259.07 52.69 259.07 53.16L259.12 53.16C260.09 50.86 261.86 49.7 264.44 49.7 266.82 49.7 268.45 50.76 269.33 52.88 270.32 50.76 272.04 49.7 274.49 49.7 278.19 49.7 280.04 51.97 280.04 56.5L280.04 68.85 274.35 68.85Z"/><path d="M299.08 68.06C297.2 68.77 295.21 69.13 293.1 69.13 289.92 69.13 287.51 68.22 285.87 66.4 284.34 64.72 283.57 62.37 283.57 59.35 283.57 56.68 284.28 54.45 285.71 52.64 287.26 50.68 289.32 49.71 291.9 49.71 297.37 49.71 300.11 52.98 300.11 59.53L300.11 60.94 288.97 60.94C288.97 62.14 289.35 63.13 290.11 63.92 290.94 64.78 292.12 65.22 293.63 65.22 295.42 65.22 297.2 64.73 298.97 63.74L299.08 68.06ZM294.87 57.83C294.87 54.75 293.88 53.21 291.89 53.21 289.9 53.21 288.96 54.75 288.96 57.83L294.87 57.83Z"/></g><g><path d="M43.95 67.38 43.95 42.14 52.07 42.14C54.8 42.14 56.91 42.79 58.39 44.1 59.92 45.48 60.69 47.5 60.69 50.15 60.69 52.48 60.06 54.36 58.8 55.79 57.41 57.37 55.4 58.15 52.77 58.15L49.93 58.15 49.93 67.38 43.95 67.38ZM51.55 53.74C52.52 53.74 53.29 53.43 53.87 52.81 54.48 52.17 54.78 51.27 54.78 50.1 54.78 47.7 53.6 46.51 51.23 46.51L49.68 46.51 49.68 53.74 51.54 53.74Z" fill="#FFFFFF"/><path d="M63.89 67.38 63.89 40.23 69.58 40.23 69.58 67.38 63.89 67.38Z" fill="#FFFFFF"/><path d="M84.2 67.38 84.06 64.76 84.01 64.76C83.84 65.41 83.28 66.04 82.33 66.65 81.25 67.32 80.09 67.65 78.83 67.65 77.07 67.65 75.65 67.13 74.58 66.08 73.51 65.03 72.97 63.65 72.97 61.92 72.97 57.71 76.09 55.6 82.34 55.6L84.07 55.6C84.07 53.2 82.9 52.01 80.57 52.01 78.92 52.01 77.17 52.56 75.32 53.65L75.07 49.47C77.42 48.65 79.44 48.24 81.14 48.24 84.23 48.24 86.42 48.87 87.69 50.13 88.75 51.21 89.28 52.89 89.28 55.18L89.28 62.09C89.28 64.36 89.33 66.13 89.42 67.39L84.21 67.39ZM84.06 58.31C82.38 58.31 81.11 58.46 80.26 58.76 78.88 59.28 78.19 60.22 78.19 61.6 78.19 63.25 79.01 64.08 80.65 64.08 81.36 64.08 82 63.87 82.56 63.44 83.56 62.67 84.06 61.31 84.06 59.37L84.06 58.3Z" fill="#FFFFFF"/><path d="M93.27 70.68C93.76 71 94.36 71.16 95.09 71.16 95.97 71.16 96.68 70.74 97.23 69.89 97.7 69.15 97.93 68.31 97.93 67.39L91.36 48.54 97.27 48.54 100.82 61.3 100.87 61.3 104.21 48.54 109.76 48.54 103.1 69.12C102.4 71.32 101.53 72.93 100.48 73.94 99.43 74.94 98.12 75.44 96.55 75.44 95.28 75.44 94.12 75.27 93.09 74.94L93.27 70.69Z" fill="#FFFFFF"/><path d="M120.92 64.9C119.42 63.16 118.67 60.81 118.67 57.87 118.67 54.93 119.42 52.66 120.92 50.93 122.5 49.13 124.69 48.22 127.51 48.22 130.33 48.22 132.53 49.12 134.1 50.93 135.6 52.66 136.35 54.97 136.35 57.87 136.35 60.77 135.6 63.15 134.1 64.9 132.52 66.73 130.33 67.65 127.51 67.65 124.69 67.65 122.49 66.73 120.92 64.9ZM130.45 57.87C130.45 54.05 129.47 52.14 127.52 52.14 125.57 52.14 124.59 54.05 124.59 57.87 124.59 61.69 125.57 63.74 127.52 63.74 129.47 63.74 130.45 61.78 130.45 57.87Z" fill="#FFFFFF"/><path d="M151.03 67.15C150.2 67.48 148.87 67.65 147.05 67.65 145.41 67.65 144.12 67.24 143.16 66.42 142.07 65.48 141.52 64.05 141.52 62.12L141.52 52.52 138.4 52.52 138.4 48.52 141.65 48.52 141.65 44.65 147.2 42.88 147.2 48.52 150.91 48.52 150.91 52.52 147.2 52.52 147.2 61.18C147.2 62.76 147.85 63.54 149.16 63.54 149.84 63.54 150.46 63.4 151.02 63.13L151.02 67.13Z" fill="#FFFFFF"/><path d="M164.38 67.38 164.38 55.78C164.38 53.79 163.64 52.8 162.15 52.8 160.5 52.8 159.67 54.13 159.67 56.8L159.67 67.37 153.94 67.37 153.94 40.22 159.67 40.22 159.67 51.29 159.72 51.29C160.04 50.29 160.67 49.52 161.61 48.97 162.46 48.47 163.43 48.22 164.52 48.22 168.22 48.22 170.07 50.49 170.07 55.02L170.07 67.37 164.38 67.37Z" fill="#FFFFFF"/><path d="M189.12 66.58C187.24 67.29 185.25 67.65 183.14 67.65 179.96 67.65 177.55 66.74 175.91 64.92 174.38 63.24 173.61 60.89 173.61 57.87 173.61 55.2 174.32 52.97 175.75 51.16 177.3 49.2 179.36 48.23 181.94 48.23 187.41 48.23 190.15 51.5 190.15 58.05L190.15 59.46 179.01 59.46C179.01 60.66 179.39 61.65 180.15 62.44 180.98 63.3 182.16 63.74 183.67 63.74 185.46 63.74 187.24 63.25 189.01 62.26L189.12 66.58ZM184.91 56.35C184.91 53.27 183.92 51.73 181.93 51.73 179.94 51.73 179 53.27 179 56.35L184.91 56.35Z" fill="#FFFFFF"/><path d="M193.49 67.38 193.49 52.49C193.49 50.82 193.44 49.5 193.35 48.53L198.56 48.53 198.7 51.92 198.75 51.92C199.54 50.57 200.15 49.71 200.59 49.33 201.41 48.6 202.55 48.24 204.02 48.24L204.86 48.24 204.86 53.52C204.31 53.4 203.68 53.34 202.95 53.34 201.43 53.34 200.4 53.93 199.83 55.11 199.42 55.94 199.22 57.22 199.22 58.95L199.22 67.39 193.49 67.39Z" fill="#FFFFFF"/><path d="M225.87 64.08C225.61 64.82 225.14 65.5 224.46 66.1 223.49 66.95 222.31 67.37 220.91 67.37 219.03 67.37 217.51 66.69 216.36 65.32 214.97 63.68 214.27 61.23 214.27 57.95 214.27 54.92 214.85 52.55 216 50.83 217.15 49.09 218.79 48.21 220.91 48.21 223.32 48.21 225.02 49.32 226 51.53L226.09 51.53 226.23 48.51 231.62 48.51C231.53 50.24 231.48 51.65 231.48 52.74L231.48 65.09C231.48 67.71 231.08 69.77 230.27 71.28 228.78 74.04 225.99 75.42 221.88 75.42 219.82 75.42 217.55 75.03 215.08 74.26L215.28 69.6C217.37 70.72 219.36 71.28 221.24 71.28 223.27 71.28 224.62 70.56 225.29 69.12 225.73 68.16 225.95 66.48 225.95 64.07L225.86 64.07ZM225.8 57.92C225.8 56.51 225.62 55.32 225.25 54.35 224.76 53.05 224.01 52.39 222.98 52.39 221.12 52.39 220.18 54.23 220.18 57.92 220.18 61.61 221.1 63.38 222.93 63.38 224.76 63.38 225.8 61.56 225.8 57.92Z" fill="#FFFFFF"/><path d="M245.92 67.38 245.78 64.76 245.73 64.76C245.56 65.41 245 66.04 244.05 66.65 242.97 67.32 241.81 67.65 240.55 67.65 238.79 67.65 237.37 67.13 236.3 66.08 235.23 65.03 234.69 63.65 234.69 61.92 234.69 57.71 237.81 55.6 244.06 55.6L245.79 55.6C245.79 53.2 244.62 52.01 242.29 52.01 240.64 52.01 238.89 52.56 237.04 53.65L236.79 49.47C239.14 48.65 241.16 48.24 242.86 48.24 245.95 48.24 248.14 48.87 249.41 50.13 250.47 51.21 251 52.89 251 55.18L251 62.09C251 64.36 251.05 66.13 251.14 67.39L245.93 67.39ZM245.78 58.31C244.1 58.31 242.83 58.46 241.98 58.76 240.6 59.28 239.91 60.22 239.91 61.6 239.91 63.25 240.73 64.08 242.37 64.08 243.08 64.08 243.72 63.87 244.28 63.44 245.28 62.67 245.78 61.31 245.78 59.37L245.78 58.3Z" fill="#FFFFFF"/><path d="M275.4 67.38 275.4 55.78C275.4 53.79 274.67 52.8 273.22 52.8 271.63 52.8 270.83 53.69 270.83 55.46L270.83 67.38 265.17 67.38 265.17 55.78C265.17 53.79 264.5 52.8 263.17 52.8 261.49 52.8 260.65 54.13 260.65 56.8L260.65 67.37 254.92 67.37 254.92 52.48C254.92 50.81 254.87 49.49 254.78 48.52L259.99 48.52C260.08 50.16 260.13 51.21 260.13 51.68L260.18 51.68C261.15 49.38 262.92 48.22 265.5 48.22 267.88 48.22 269.51 49.28 270.39 51.4 271.38 49.28 273.1 48.22 275.55 48.22 279.25 48.22 281.1 50.49 281.1 55.02L281.1 67.37 275.41 67.37Z" fill="#FFFFFF"/><path d="M300.14 66.58C298.26 67.29 296.27 67.65 294.16 67.65 290.98 67.65 288.57 66.74 286.93 64.92 285.4 63.24 284.63 60.89 284.63 57.87 284.63 55.2 285.34 52.97 286.77 51.16 288.32 49.2 290.38 48.23 292.96 48.23 298.43 48.23 301.17 51.5 301.17 58.05L301.17 59.46 290.03 59.46C290.03 60.66 290.41 61.65 291.17 62.44 292 63.3 293.18 63.74 294.69 63.74 296.48 63.74 298.26 63.25 300.03 62.26L300.14 66.58ZM295.93 56.35C295.93 53.27 294.94 51.73 292.95 51.73 290.96 51.73 290.02 53.27 290.02 56.35L295.93 56.35Z" fill="#FFFFFF"/></g></svg>