<svg viewBox="0 0 342.85 125.44" xmlns="http://www.w3.org/2000/svg" xmlns:xlink="http://www.w3.org/1999/xlink" id="Layer_1" overflow="hidden"><defs><linearGradient x1="19.79" y1="-27.85" x2="190.35" y2="100.23" gradientUnits="userSpaceOnUse" id="linear-gradient"><stop offset="0" stop-color="#FFFFFF"/><stop offset="0.09" stop-color="#EAEDD8"/><stop offset="0.38" stop-color="#ADBC67"/><stop offset="0.51" stop-color="#95A93B"/></linearGradient></defs><rect x="0" y="8.97" rx="54.66" ry="54.66" width="339.09" height="116.47" fill="#231F20" opacity="0.56"/><rect x="3.26" y="0.5" rx="54.66" ry="54.66" width="339.09" height="116.47" stroke="#294D24" stroke-miterlimit="10" fill="#95A93B"/><path d="M229.41 4.21C175.76 7.21 81.88 12.85 53.64 42.32 35.51 61.25 32.16 83.6 37.58 109.03 17.82 100.56 11.54 84.08 8.99 76.56 6.02 67.8 1.17 30.98 27.88 13.56 42.37 4.11 52.59 4.74 52.59 4.74 52.59 4.74 184.77 4.21 229.41 4.21Z" fill="url(#linear-gradient)" opacity="0.78"/><g><g><path d="M80.22 67.64 80.16 68.26C79.94 70.25 79.45 72.09 78.7 73.8 77.95 75.54 76.91 77.04 75.58 78.3 74.25 79.56 72.58 80.54 70.56 81.25 68.54 81.96 66.2 82.32 63.52 82.32 60.84 82.32 58.48 81.86 56.33 80.94 54.18 80.04 52.37 78.75 50.91 77.06 49.47 75.39 48.35 73.4 47.57 71.07 46.8 68.75 46.42 66.16 46.42 63.31L46.42 59.32C46.42 56.47 46.81 53.89 47.6 51.56 48.39 49.22 49.52 47.2 51 45.52 51.73 44.7 52.55 43.96 53.44 43.3 54.4 42.64 55.44 42.09 56.56 41.64 58.79 40.72 61.28 40.26 64.03 40.26 64.87 40.26 65.68 40.3 66.46 40.37 67.24 40.44 67.98 40.56 68.69 40.72 69.4 40.88 70.09 41.07 70.74 41.3 72.69 42.01 74.31 43 75.6 44.25 75.94 44.57 76.25 44.9 76.54 45.25 76.83 45.6 77.1 45.96 77.35 46.33 77.6 46.71 77.84 47.09 78.07 47.5 78.29 47.9 78.5 48.33 78.69 48.78 79.46 50.5 79.95 52.41 80.15 54.48L80.21 55.1 73.69 55.1 73.61 54.62C73.42 53.23 73.1 51.99 72.65 50.88 72.22 49.81 71.63 48.9 70.88 48.15 70.13 47.4 69.2 46.83 68.1 46.44 66.99 46.03 65.64 45.82 64.03 45.82 63.73 45.82 63.43 45.82 63.14 45.85 62.85 45.88 62.56 45.9 62.28 45.93 62 45.97 61.72 46.01 61.45 46.06 61.18 46.11 60.92 46.17 60.66 46.24 60.41 46.31 60.16 46.39 59.93 46.48 59.7 46.56 59.46 46.66 59.21 46.78 57.84 47.42 56.7 48.32 55.78 49.48 55.31 50.06 54.9 50.7 54.54 51.41 54.18 52.11 53.88 52.88 53.64 53.7 53.4 54.54 53.22 55.43 53.11 56.36 53 57.29 52.94 58.27 52.94 59.3L52.94 63.29C52.94 63.78 52.95 64.25 52.98 64.71 53.01 65.17 53.04 65.62 53.09 66.06 53.14 66.5 53.2 66.94 53.27 67.37 53.36 67.8 53.46 68.22 53.55 68.63 53.98 70.26 54.64 71.69 55.52 72.93 56.38 74.13 57.48 75.07 58.81 75.74 60.12 76.43 61.69 76.78 63.5 76.78 65.31 76.78 66.74 76.58 67.94 76.19 68.52 76 69.05 75.77 69.53 75.49 70.01 75.21 70.43 74.89 70.81 74.53 71.58 73.82 72.18 72.93 72.61 71.86 73.04 70.77 73.37 69.53 73.59 68.12L73.67 67.64 80.19 67.64Z" fill="#173509"/><path d="M92.05 81.75 85.73 81.75 85.73 38.59 92.05 38.59 92.05 81.75Z" fill="#173509"/><path d="M99.88 46.34C99.26 45.67 98.95 44.83 98.95 43.84 98.95 43.35 99.02 42.9 99.17 42.48 99.32 42.06 99.55 41.68 99.87 41.34 100.49 40.63 101.39 40.27 102.57 40.27 103.75 40.27 104.66 40.63 105.3 41.34 105.92 42.01 106.23 42.85 106.23 43.84 106.23 44.83 105.92 45.67 105.3 46.34 104.66 47.01 103.75 47.35 102.57 47.35 101.39 47.35 100.49 47.01 99.87 46.34ZM105.7 81.75 99.38 81.75 99.38 51.34 105.7 51.34 105.7 81.75Z" fill="#173509"/><path d="M123.68 76.73C124.35 76.87 125.11 76.94 125.96 76.94 126.28 76.94 126.59 76.93 126.89 76.9 127.19 76.87 127.48 76.83 127.77 76.76 128.06 76.69 128.35 76.62 128.63 76.52 129.06 76.39 129.46 76.22 129.84 76.03 130.21 75.83 130.56 75.61 130.88 75.37 131.52 74.9 132.03 74.34 132.43 73.68 132.79 73.02 133 72.31 133.08 71.54L133.14 71.03 139.15 71.03 139.12 71.62C139.05 73.06 138.65 74.43 137.94 75.72 137.25 77.01 136.33 78.15 135.19 79.12 134.05 80.08 132.71 80.84 131.17 81.42 129.54 82 127.81 82.29 125.97 82.29 123.4 82.29 121.16 81.88 119.23 81.05 117.39 80.23 115.89 79.11 114.71 77.71 113.55 76.32 112.68 74.71 112.1 72.88 111.91 72.26 111.76 71.64 111.64 71.01 111.52 70.38 111.42 69.74 111.36 69.08 111.29 68.42 111.26 67.76 111.26 67.08L111.26 65.96C111.26 65.29 111.29 64.62 111.36 63.96 111.42 63.3 111.52 62.66 111.64 62.03 111.76 61.4 111.92 60.78 112.12 60.18 112.32 59.57 112.54 58.98 112.79 58.41 113.04 57.84 113.33 57.3 113.66 56.78 113.99 56.26 114.34 55.78 114.71 55.33 115.89 53.92 117.39 52.81 119.21 51.99 121.14 51.17 123.39 50.75 125.95 50.75 126.96 50.75 127.92 50.82 128.83 50.97 129.74 51.12 130.6 51.34 131.43 51.62 131.99 51.83 132.5 52.05 132.96 52.29 133.42 52.53 133.85 52.8 134.27 53.09 134.68 53.38 135.08 53.7 135.45 54.06 136.01 54.57 136.51 55.13 136.94 55.75 137.37 56.37 137.75 57.03 138.06 57.75 138.7 59.16 139.05 60.67 139.13 62.3L139.16 62.89 133.15 62.89 133.09 62.38C133.02 61.5 132.81 60.68 132.47 59.94 132.11 59.19 131.63 58.53 131.02 57.97 130.41 57.41 129.68 56.96 128.83 56.63 127.98 56.3 127.02 56.14 125.95 56.14 125.41 56.14 124.89 56.17 124.4 56.24 123.91 56.31 123.46 56.4 123.05 56.52 122.64 56.64 122.25 56.8 121.9 56.98 121.54 57.17 121.21 57.37 120.9 57.6 120.59 57.82 120.3 58.07 120.04 58.33 119.78 58.59 119.54 58.87 119.34 59.17 118.67 60.11 118.21 61.17 117.96 62.35 117.7 63.55 117.57 64.75 117.57 65.95L117.57 67.07C117.57 67.69 117.6 68.3 117.67 68.91 117.74 69.52 117.83 70.12 117.97 70.72 118.21 71.9 118.66 72.95 119.32 73.87 119.64 74.32 120.01 74.73 120.44 75.09 120.87 75.45 121.36 75.78 121.9 76.06 122.42 76.34 123.02 76.55 123.7 76.69Z" fill="#173509"/><path d="M163.77 81.53 152.67 67.99 149.86 70.74 149.86 81.76 143.54 81.76 143.54 38.59 149.86 38.59 149.86 63.71 151.74 61.55 151.77 61.52 162.06 51.52 162.26 51.35 170.3 51.35 169.43 52.25 157.32 64.19 170.84 80.88 171.51 81.75 163.95 81.75 163.78 81.53Z" fill="#173509"/><path d="M194.11 39.15 194.11 54.16C195.08 53.26 196.2 52.53 197.45 51.97 199.21 51.18 201.17 50.79 203.32 50.79 203.88 50.79 204.43 50.81 204.95 50.86 205.47 50.91 205.99 50.98 206.5 51.07 206.99 51.16 207.44 51.29 207.85 51.44 208.51 51.65 209.11 51.91 209.65 52.24 210.19 52.57 210.69 52.97 211.15 53.43 211.61 53.9 212.01 54.42 212.36 55 212.71 55.58 212.99 56.23 213.22 56.94 213.71 58.35 213.95 60.03 213.95 62L213.95 81.76 207.63 81.76 207.63 62.09C207.63 61 207.51 60.09 207.26 59.36 207.15 58.99 206.99 58.66 206.8 58.38 206.6 58.1 206.38 57.85 206.14 57.62 205.65 57.19 205.03 56.87 204.29 56.66 203.52 56.44 202.62 56.32 201.59 56.32 201.35 56.32 201.11 56.32 200.87 56.35 200.64 56.37 200.4 56.39 200.17 56.42 199.94 56.45 199.71 56.49 199.5 56.53 199.28 56.58 199.07 56.63 198.85 56.7 198.63 56.77 198.43 56.84 198.23 56.92 198.03 57 197.84 57.09 197.64 57.19 197.44 57.28 197.25 57.39 197.06 57.5 196.42 57.89 195.85 58.35 195.35 58.88 194.86 59.39 194.45 59.96 194.11 60.59L194.11 81.75 187.79 81.75 187.79 38.59 194.11 38.59 194.11 39.15Z" fill="#173509"/><path d="M236.54 82.19C235.77 82.27 234.97 82.32 234.12 82.32 231.74 82.32 229.59 81.95 227.66 81.22 225.77 80.49 224.18 79.47 222.91 78.16 222.5 77.71 222.11 77.24 221.74 76.75 221.37 76.26 221.05 75.74 220.76 75.19 220.47 74.64 220.21 74.06 219.99 73.46 219.32 71.68 218.98 69.72 218.98 67.59L218.98 66.47C218.98 64.02 219.36 61.81 220.13 59.87 220.9 57.94 221.92 56.3 223.19 54.95 223.62 54.52 224.07 54.12 224.55 53.74 225.03 53.37 225.52 53.02 226.03 52.7 226.59 52.4 227.17 52.13 227.77 51.89 229.59 51.16 231.47 50.79 233.42 50.79 234.64 50.79 235.78 50.89 236.85 51.1 237.92 51.29 238.9 51.57 239.8 51.94 240.36 52.2 240.89 52.5 241.37 52.83 241.86 53.16 242.31 53.51 242.73 53.9 243.15 54.28 243.54 54.7 243.9 55.15 244.97 56.5 245.75 58.09 246.26 59.93 246.52 60.83 246.71 61.77 246.84 62.75 246.96 63.73 247.02 64.75 247.02 65.8L247.02 68.61 225.33 68.61C225.4 69.68 225.62 70.67 225.98 71.59 226.11 71.97 226.27 72.32 226.46 72.64 226.65 72.97 226.85 73.28 227.08 73.57 227.3 73.86 227.55 74.14 227.81 74.4 228.2 74.79 228.64 75.14 229.12 75.45 229.6 75.76 230.12 76.04 230.68 76.28 231.79 76.73 233.04 76.95 234.45 76.95 235.09 76.95 235.69 76.91 236.25 76.84 236.81 76.77 237.34 76.65 237.84 76.49 238.34 76.33 238.79 76.14 239.2 75.91 240.47 75.2 241.56 74.25 242.46 73.07L242.8 72.62 243.25 72.96 246.43 75.43 246.85 75.77 246.57 76.19C246.4 76.45 246.22 76.71 246.02 76.96 245.82 77.21 245.62 77.47 245.4 77.72 245.18 77.97 244.96 78.22 244.71 78.46 243.98 79.19 243.14 79.85 242.18 80.43 241.69 80.71 241.17 80.96 240.61 81.19 240.03 81.43 239.4 81.64 238.73 81.81 238.06 81.98 237.33 82.11 236.57 82.19ZM235.28 56.34C234.72 56.24 234.1 56.19 233.43 56.19 233.07 56.19 232.73 56.21 232.4 56.25 232.07 56.29 231.75 56.34 231.44 56.42 231.13 56.49 230.83 56.58 230.53 56.67L230.02 56.89C229.85 56.96 229.68 57.05 229.51 57.14 229.34 57.23 229.18 57.33 229.03 57.42 228.88 57.51 228.73 57.62 228.58 57.74 228.43 57.86 228.29 57.98 228.16 58.09 227.8 58.41 227.48 58.76 227.19 59.16 226.9 59.55 226.63 59.99 226.39 60.48 226.2 60.87 226.03 61.3 225.88 61.77 225.75 62.22 225.64 62.7 225.54 63.2L240.69 63.2C240.62 62.36 240.46 61.52 240.21 60.7 240.14 60.42 240.03 60.15 239.9 59.89 239.77 59.63 239.62 59.37 239.46 59.12 239.3 58.87 239.13 58.63 238.94 58.4 238.38 57.74 237.65 57.21 236.75 56.8 236.32 56.59 235.82 56.44 235.26 56.34Z" fill="#173509"/><path d="M267.42 57.25 266.77 57.14C266.66 57.12 266.55 57.1 266.45 57.08 266.35 57.06 266.24 57.05 266.14 57.04 266.04 57.04 265.94 57.02 265.84 57.01 265.75 57.01 265.65 56.99 265.56 56.97 265.19 56.95 264.76 56.94 264.3 56.94 262.61 56.94 261.26 57.29 260.23 57.98 259.22 58.64 258.45 59.54 257.93 60.68L257.93 81.76 251.61 81.76 251.61 51.35 257.79 51.35 257.79 51.91 257.85 53.76C258.47 53.05 259.17 52.45 259.96 51.96 261.23 51.17 262.77 50.78 264.57 50.78 264.98 50.78 265.44 50.83 265.95 50.92 266.1 50.94 266.23 50.96 266.33 50.98 266.43 51 266.53 51.02 266.62 51.05 266.71 51.08 266.8 51.11 266.89 51.13 266.97 51.16 267.05 51.19 267.13 51.23L267.44 51.4 267.44 57.25Z" fill="#173509"/><path d="M287 82.19C286.23 82.27 285.43 82.32 284.58 82.32 282.2 82.32 280.05 81.95 278.12 81.22 276.23 80.49 274.64 79.47 273.37 78.16 272.96 77.71 272.57 77.24 272.2 76.75 271.83 76.26 271.51 75.74 271.22 75.19 270.93 74.64 270.67 74.06 270.45 73.46 269.78 71.68 269.44 69.72 269.44 67.59L269.44 66.47C269.44 64.02 269.82 61.81 270.59 59.87 271.36 57.94 272.38 56.3 273.65 54.95 274.08 54.52 274.53 54.12 275.01 53.74 275.49 53.37 275.98 53.02 276.49 52.7 277.05 52.4 277.63 52.13 278.23 51.89 280.05 51.16 281.93 50.79 283.88 50.79 285.1 50.79 286.24 50.89 287.31 51.1 288.38 51.29 289.36 51.57 290.26 51.94 290.82 52.2 291.35 52.5 291.83 52.83 292.32 53.16 292.77 53.51 293.19 53.9 293.61 54.28 294 54.7 294.36 55.15 295.43 56.5 296.21 58.09 296.72 59.93 296.98 60.83 297.17 61.77 297.3 62.75 297.42 63.73 297.48 64.75 297.48 65.8L297.48 68.61 275.79 68.61C275.86 69.68 276.08 70.67 276.44 71.59 276.57 71.97 276.73 72.32 276.92 72.64 277.11 72.97 277.31 73.28 277.54 73.57 277.76 73.86 278.01 74.14 278.27 74.4 278.66 74.79 279.1 75.14 279.58 75.45 280.06 75.76 280.58 76.04 281.14 76.28 282.25 76.73 283.5 76.95 284.91 76.95 285.55 76.95 286.15 76.91 286.71 76.84 287.27 76.77 287.8 76.65 288.3 76.49 288.8 76.33 289.25 76.14 289.66 75.91 290.93 75.2 292.02 74.25 292.92 73.07L293.26 72.62 293.71 72.96 296.89 75.43 297.31 75.77 297.03 76.19C296.86 76.45 296.68 76.71 296.48 76.96 296.28 77.21 296.08 77.47 295.86 77.72 295.64 77.97 295.42 78.22 295.17 78.46 294.44 79.19 293.6 79.85 292.64 80.43 292.15 80.71 291.63 80.96 291.07 81.19 290.49 81.43 289.86 81.64 289.19 81.81 288.52 81.98 287.79 82.11 287.03 82.19ZM285.74 56.34C285.18 56.24 284.56 56.19 283.89 56.19 283.53 56.19 283.19 56.21 282.86 56.25 282.53 56.29 282.21 56.34 281.9 56.42 281.59 56.49 281.29 56.58 280.99 56.67L280.48 56.89C280.31 56.96 280.14 57.05 279.97 57.14 279.8 57.23 279.64 57.33 279.49 57.42 279.34 57.51 279.19 57.62 279.04 57.74 278.89 57.86 278.75 57.98 278.62 58.09 278.26 58.41 277.94 58.76 277.65 59.16 277.36 59.55 277.09 59.99 276.85 60.48 276.66 60.87 276.49 61.3 276.34 61.77 276.21 62.22 276.1 62.7 276 63.2L291.15 63.2C291.08 62.36 290.92 61.52 290.67 60.7 290.6 60.42 290.49 60.15 290.36 59.89 290.23 59.63 290.08 59.37 289.92 59.12 289.76 58.87 289.59 58.63 289.4 58.4 288.84 57.74 288.11 57.21 287.21 56.8 286.78 56.59 286.28 56.44 285.72 56.34Z" fill="#173509"/></g><g><path d="M81.94 64.22 81.88 64.84C81.66 66.83 81.17 68.67 80.42 70.38 79.67 72.12 78.63 73.62 77.3 74.88 75.97 76.14 74.3 77.12 72.28 77.83 70.27 78.54 67.92 78.9 65.24 78.9 62.56 78.9 60.2 78.44 58.05 77.52 55.9 76.62 54.09 75.33 52.63 73.64 51.19 71.97 50.07 69.98 49.29 67.65 48.52 65.33 48.14 62.74 48.14 59.89L48.14 55.9C48.14 53.05 48.53 50.47 49.32 48.14 50.11 45.8 51.24 43.78 52.72 42.1 53.45 41.28 54.27 40.54 55.16 39.88 56.12 39.22 57.16 38.67 58.28 38.22 60.51 37.3 63 36.84 65.75 36.84 66.59 36.84 67.4 36.88 68.18 36.95 68.96 37.02 69.7 37.14 70.41 37.3 71.12 37.46 71.81 37.65 72.46 37.88 74.41 38.59 76.03 39.58 77.32 40.83 77.66 41.15 77.97 41.48 78.26 41.83 78.55 42.18 78.82 42.54 79.07 42.91 79.32 43.29 79.56 43.67 79.79 44.08 80.01 44.48 80.22 44.91 80.41 45.36 81.18 47.08 81.67 48.99 81.87 51.06L81.93 51.68 75.41 51.68 75.33 51.2C75.14 49.81 74.82 48.57 74.37 47.46 73.94 46.39 73.35 45.48 72.6 44.73 71.85 43.98 70.92 43.41 69.82 43.02 68.71 42.61 67.36 42.4 65.75 42.4 65.45 42.4 65.15 42.4 64.86 42.43 64.57 42.46 64.28 42.48 64 42.51 63.72 42.55 63.44 42.59 63.17 42.64 62.9 42.69 62.64 42.75 62.38 42.82 62.13 42.89 61.88 42.97 61.65 43.06 61.42 43.14 61.18 43.24 60.93 43.36 59.56 44 58.42 44.9 57.5 46.06 57.03 46.64 56.62 47.28 56.26 47.99 55.9 48.69 55.6 49.46 55.36 50.28 55.12 51.12 54.94 52.01 54.83 52.94 54.72 53.87 54.66 54.85 54.66 55.88L54.66 59.87C54.66 60.36 54.67 60.83 54.7 61.29 54.73 61.75 54.76 62.2 54.81 62.64 54.86 63.08 54.92 63.52 54.99 63.95 55.08 64.38 55.18 64.8 55.27 65.21 55.7 66.84 56.36 68.27 57.24 69.51 58.1 70.71 59.2 71.65 60.53 72.32 61.84 73.01 63.41 73.36 65.22 73.36 67.03 73.36 68.46 73.16 69.66 72.77 70.24 72.58 70.77 72.35 71.25 72.07 71.73 71.79 72.15 71.47 72.53 71.11 73.3 70.4 73.9 69.51 74.33 68.44 74.76 67.35 75.09 66.11 75.31 64.7L75.39 64.22 81.91 64.22Z" fill="#FFFFFF"/><path d="M93.76 78.32 87.44 78.32 87.44 35.16 93.76 35.16 93.76 78.32Z" fill="#FFFFFF"/><path d="M101.59 42.91C100.97 42.24 100.66 41.4 100.66 40.41 100.66 39.92 100.73 39.47 100.88 39.05 101.03 38.63 101.26 38.25 101.58 37.91 102.2 37.2 103.1 36.84 104.28 36.84 105.46 36.84 106.37 37.2 107.01 37.91 107.63 38.58 107.94 39.42 107.94 40.41 107.94 41.4 107.63 42.24 107.01 42.91 106.37 43.58 105.46 43.92 104.28 43.92 103.1 43.92 102.2 43.58 101.58 42.91ZM107.41 78.32 101.09 78.32 101.09 47.91 107.41 47.91 107.41 78.32Z" fill="#FFFFFF"/><path d="M125.39 73.31C126.06 73.45 126.82 73.52 127.67 73.52 127.99 73.52 128.3 73.51 128.6 73.48 128.9 73.45 129.19 73.41 129.48 73.34 129.77 73.27 130.06 73.2 130.34 73.1 130.77 72.97 131.17 72.8 131.55 72.61 131.92 72.41 132.27 72.19 132.59 71.95 133.23 71.48 133.74 70.92 134.14 70.26 134.5 69.6 134.71 68.89 134.79 68.12L134.85 67.61 140.86 67.61 140.83 68.2C140.76 69.64 140.36 71.01 139.65 72.3 138.96 73.59 138.04 74.73 136.9 75.7 135.76 76.66 134.42 77.42 132.88 78 131.25 78.58 129.52 78.87 127.68 78.87 125.11 78.87 122.87 78.46 120.94 77.63 119.1 76.81 117.6 75.69 116.42 74.29 115.26 72.9 114.39 71.29 113.81 69.46 113.62 68.84 113.47 68.22 113.35 67.59 113.23 66.96 113.13 66.32 113.07 65.66 113 65 112.97 64.34 112.97 63.66L112.97 62.54C112.97 61.87 113 61.2 113.07 60.54 113.13 59.88 113.23 59.24 113.35 58.61 113.47 57.98 113.63 57.36 113.83 56.76 114.03 56.15 114.25 55.56 114.5 54.99 114.75 54.42 115.04 53.88 115.37 53.36 115.7 52.84 116.05 52.36 116.42 51.91 117.6 50.5 119.1 49.39 120.92 48.57 122.85 47.75 125.1 47.33 127.66 47.33 128.67 47.33 129.63 47.4 130.54 47.55 131.45 47.7 132.31 47.92 133.14 48.2 133.7 48.41 134.21 48.63 134.67 48.87 135.13 49.11 135.56 49.38 135.98 49.67 136.39 49.96 136.79 50.28 137.16 50.64 137.72 51.15 138.22 51.71 138.65 52.33 139.08 52.95 139.46 53.61 139.77 54.33 140.41 55.74 140.76 57.25 140.84 58.88L140.87 59.47 134.86 59.47 134.8 58.96C134.73 58.08 134.52 57.26 134.18 56.52 133.82 55.77 133.34 55.11 132.73 54.55 132.12 53.99 131.39 53.54 130.54 53.21 129.69 52.88 128.73 52.72 127.66 52.72 127.12 52.72 126.6 52.75 126.11 52.82 125.62 52.89 125.17 52.98 124.76 53.1 124.35 53.22 123.96 53.38 123.61 53.56 123.25 53.75 122.92 53.95 122.61 54.18 122.3 54.4 122.01 54.65 121.75 54.91 121.49 55.17 121.25 55.45 121.05 55.75 120.38 56.69 119.92 57.75 119.67 58.93 119.41 60.13 119.28 61.33 119.28 62.53L119.28 63.65C119.28 64.27 119.31 64.88 119.38 65.49 119.45 66.1 119.54 66.7 119.68 67.3 119.92 68.48 120.37 69.53 121.03 70.45 121.35 70.9 121.72 71.31 122.15 71.67 122.58 72.03 123.07 72.36 123.61 72.64 124.13 72.92 124.73 73.13 125.41 73.27Z" fill="#FFFFFF"/><path d="M165.49 78.1 154.39 64.56 151.58 67.31 151.58 78.33 145.26 78.33 145.26 35.16 151.58 35.16 151.58 60.28 153.46 58.12 153.49 58.09 163.78 48.09 163.98 47.92 172.02 47.92 171.15 48.82 159.04 60.76 172.56 77.45 173.23 78.32 165.67 78.32 165.5 78.1Z" fill="#FFFFFF"/><path d="M195.82 35.72 195.82 50.73C196.79 49.83 197.91 49.1 199.16 48.54 200.92 47.75 202.88 47.36 205.03 47.36 205.59 47.36 206.14 47.38 206.66 47.43 207.18 47.48 207.7 47.55 208.21 47.64 208.7 47.73 209.15 47.86 209.56 48.01 210.22 48.22 210.82 48.48 211.36 48.81 211.9 49.14 212.4 49.54 212.86 50 213.32 50.47 213.72 50.99 214.07 51.57 214.42 52.15 214.7 52.8 214.93 53.51 215.42 54.92 215.66 56.6 215.66 58.57L215.66 78.33 209.34 78.33 209.34 58.66C209.34 57.57 209.22 56.66 208.97 55.93 208.86 55.56 208.7 55.23 208.51 54.95 208.31 54.67 208.09 54.42 207.85 54.19 207.36 53.76 206.74 53.44 206 53.23 205.23 53.01 204.33 52.89 203.3 52.89 203.06 52.89 202.82 52.89 202.58 52.92 202.35 52.94 202.11 52.96 201.88 52.99 201.65 53.02 201.42 53.06 201.21 53.1 200.99 53.15 200.78 53.2 200.56 53.27 200.34 53.34 200.14 53.41 199.94 53.49 199.74 53.57 199.55 53.66 199.35 53.76 199.15 53.85 198.96 53.96 198.77 54.07 198.13 54.46 197.56 54.92 197.06 55.45 196.57 55.96 196.16 56.53 195.82 57.16L195.82 78.32 189.5 78.32 189.5 35.16 195.82 35.16 195.82 35.72Z" fill="#FFFFFF"/><path d="M238.25 78.76C237.48 78.84 236.68 78.89 235.83 78.89 233.45 78.89 231.3 78.52 229.37 77.79 227.48 77.06 225.89 76.04 224.62 74.73 224.21 74.28 223.82 73.81 223.45 73.32 223.08 72.83 222.76 72.31 222.47 71.76 222.18 71.21 221.92 70.63 221.7 70.03 221.03 68.25 220.69 66.29 220.69 64.16L220.69 63.04C220.69 60.59 221.07 58.38 221.84 56.44 222.61 54.51 223.63 52.87 224.9 51.52 225.33 51.09 225.78 50.69 226.26 50.31 226.74 49.94 227.23 49.59 227.74 49.27 228.3 48.97 228.88 48.7 229.48 48.46 231.3 47.73 233.18 47.36 235.13 47.36 236.35 47.36 237.49 47.46 238.56 47.67 239.63 47.86 240.61 48.14 241.51 48.51 242.07 48.77 242.6 49.07 243.08 49.4 243.57 49.73 244.02 50.08 244.44 50.47 244.86 50.85 245.25 51.27 245.61 51.72 246.68 53.07 247.46 54.66 247.97 56.5 248.23 57.4 248.42 58.34 248.55 59.32 248.67 60.3 248.73 61.32 248.73 62.37L248.73 65.18 227.04 65.18C227.11 66.25 227.33 67.24 227.69 68.16 227.82 68.54 227.98 68.89 228.17 69.21 228.36 69.54 228.56 69.85 228.79 70.14 229.01 70.43 229.26 70.71 229.52 70.97 229.91 71.36 230.35 71.71 230.83 72.02 231.31 72.33 231.83 72.61 232.39 72.85 233.5 73.3 234.75 73.52 236.16 73.52 236.8 73.52 237.4 73.48 237.96 73.41 238.52 73.34 239.05 73.22 239.55 73.06 240.05 72.9 240.5 72.71 240.91 72.48 242.18 71.77 243.27 70.82 244.17 69.64L244.51 69.19 244.96 69.53 248.14 72 248.56 72.34 248.28 72.76C248.11 73.02 247.93 73.28 247.73 73.53 247.53 73.78 247.33 74.04 247.11 74.29 246.89 74.54 246.67 74.79 246.42 75.03 245.69 75.76 244.85 76.42 243.89 77 243.4 77.28 242.88 77.53 242.32 77.76 241.74 78 241.11 78.21 240.44 78.38 239.77 78.55 239.04 78.68 238.28 78.76ZM236.99 52.91C236.43 52.81 235.81 52.76 235.14 52.76 234.78 52.76 234.44 52.78 234.11 52.82 233.78 52.86 233.46 52.91 233.15 52.99 232.84 53.06 232.54 53.15 232.24 53.24L231.73 53.46C231.56 53.53 231.39 53.62 231.22 53.71 231.05 53.8 230.89 53.9 230.74 53.99 230.59 54.08 230.44 54.19 230.29 54.31 230.14 54.43 230 54.55 229.87 54.66 229.51 54.98 229.19 55.33 228.9 55.73 228.61 56.12 228.34 56.56 228.1 57.05 227.91 57.44 227.74 57.87 227.59 58.34 227.46 58.79 227.35 59.27 227.25 59.77L242.4 59.77C242.33 58.93 242.17 58.09 241.92 57.27 241.85 56.99 241.74 56.72 241.61 56.46 241.48 56.2 241.33 55.94 241.17 55.69 241.01 55.44 240.84 55.2 240.65 54.97 240.09 54.31 239.36 53.78 238.46 53.37 238.03 53.16 237.53 53.01 236.97 52.91Z" fill="#FFFFFF"/><path d="M269.13 53.82 268.48 53.71C268.37 53.69 268.26 53.67 268.16 53.65 268.06 53.63 267.95 53.62 267.85 53.61 267.75 53.61 267.65 53.59 267.55 53.58 267.46 53.58 267.36 53.56 267.27 53.54 266.9 53.52 266.47 53.51 266.01 53.51 264.32 53.51 262.97 53.86 261.94 54.55 260.93 55.21 260.16 56.11 259.64 57.25L259.64 78.33 253.32 78.33 253.32 47.92 259.5 47.92 259.5 48.48 259.56 50.33C260.18 49.62 260.88 49.02 261.67 48.53 262.94 47.74 264.48 47.35 266.28 47.35 266.69 47.35 267.15 47.4 267.66 47.49 267.81 47.51 267.94 47.53 268.04 47.55 268.14 47.57 268.24 47.59 268.33 47.62 268.42 47.65 268.51 47.68 268.6 47.7 268.68 47.73 268.76 47.76 268.84 47.8L269.15 47.97 269.15 53.82Z" fill="#FFFFFF"/><path d="M288.71 78.76C287.94 78.84 287.14 78.89 286.29 78.89 283.91 78.89 281.76 78.52 279.83 77.79 277.94 77.06 276.35 76.04 275.08 74.73 274.67 74.28 274.28 73.81 273.91 73.32 273.54 72.83 273.22 72.31 272.93 71.76 272.64 71.21 272.38 70.63 272.16 70.03 271.49 68.25 271.15 66.29 271.15 64.16L271.15 63.04C271.15 60.59 271.53 58.38 272.3 56.44 273.07 54.51 274.09 52.87 275.36 51.52 275.79 51.09 276.24 50.69 276.72 50.31 277.2 49.94 277.69 49.59 278.2 49.27 278.76 48.97 279.34 48.7 279.94 48.46 281.76 47.73 283.64 47.36 285.59 47.36 286.81 47.36 287.95 47.46 289.02 47.67 290.09 47.86 291.07 48.14 291.97 48.51 292.53 48.77 293.06 49.07 293.54 49.4 294.03 49.73 294.48 50.08 294.9 50.47 295.32 50.85 295.71 51.27 296.07 51.72 297.14 53.07 297.92 54.66 298.43 56.5 298.69 57.4 298.88 58.34 299.01 59.32 299.13 60.3 299.19 61.32 299.19 62.37L299.19 65.18 277.5 65.18C277.57 66.25 277.79 67.24 278.15 68.16 278.28 68.54 278.44 68.89 278.63 69.21 278.82 69.54 279.02 69.85 279.25 70.14 279.47 70.43 279.72 70.71 279.98 70.97 280.37 71.36 280.81 71.71 281.29 72.02 281.77 72.33 282.29 72.61 282.85 72.85 283.96 73.3 285.21 73.52 286.62 73.52 287.26 73.52 287.86 73.48 288.42 73.41 288.98 73.34 289.51 73.22 290.01 73.06 290.51 72.9 290.96 72.71 291.37 72.48 292.64 71.77 293.73 70.82 294.63 69.64L294.97 69.19 295.42 69.53 298.6 72 299.02 72.34 298.74 72.76C298.57 73.02 298.39 73.28 298.19 73.53 297.99 73.78 297.79 74.04 297.57 74.29 297.35 74.54 297.13 74.79 296.88 75.03 296.15 75.76 295.31 76.42 294.35 77 293.86 77.28 293.34 77.53 292.78 77.76 292.2 78 291.57 78.21 290.9 78.38 290.23 78.55 289.5 78.68 288.74 78.76ZM287.45 52.91C286.89 52.81 286.27 52.76 285.6 52.76 285.24 52.76 284.9 52.78 284.57 52.82 284.24 52.86 283.92 52.91 283.61 52.99 283.3 53.06 283 53.15 282.7 53.24L282.19 53.46C282.02 53.53 281.85 53.62 281.68 53.71 281.51 53.8 281.35 53.9 281.2 53.99 281.05 54.08 280.9 54.19 280.75 54.31 280.6 54.43 280.46 54.55 280.33 54.66 279.97 54.98 279.65 55.33 279.36 55.73 279.07 56.12 278.8 56.56 278.56 57.05 278.37 57.44 278.2 57.87 278.05 58.34 277.92 58.79 277.81 59.27 277.71 59.77L292.86 59.77C292.79 58.93 292.63 58.09 292.38 57.27 292.31 56.99 292.2 56.72 292.07 56.46 291.94 56.2 291.79 55.94 291.63 55.69 291.47 55.44 291.3 55.2 291.11 54.97 290.55 54.31 289.82 53.78 288.92 53.37 288.49 53.16 287.99 53.01 287.43 52.91Z" fill="#FFFFFF"/></g></g></svg>