<svg viewBox="0 0 411.41 224.45" xmlns="http://www.w3.org/2000/svg" xmlns:xlink="http://www.w3.org/1999/xlink" id="Layer_1" overflow="hidden"><defs><linearGradient x1="74.93" y1="-6.94" x2="259.87" y2="189.58" gradientUnits="userSpaceOnUse" id="linear-gradient"><stop offset="0" stop-color="#FFFFFF" stop-opacity="0.7"/><stop offset="0.05" stop-color="#FFFFFF" stop-opacity="0.59"/><stop offset="0.19" stop-color="#FFFFFF" stop-opacity="0.34"/><stop offset="0.31" stop-color="#FFFFFF" stop-opacity="0.16"/><stop offset="0.4" stop-color="#FFFFFF" stop-opacity="0.04"/><stop offset="0.45" stop-color="#FFFFFF" stop-opacity="0"/></linearGradient></defs><path d="M406.71 224.45C406.72 224.02 406.74 223.59 406.74 223.16L406.74 40.97C406.74 20.51 390.15 3.92 369.69 3.92L37.05 3.92C16.59 3.92 0 20.51 0 40.97L0 223.16C0 223.59 0.02 224.02 0.03 224.45L406.71 224.45Z" fill="#231F20"/><path d="M410.06 221.43C410.07 221 410.09 220.57 410.09 220.14L410.09 37.95C410.09 17.49 393.5 0.9 373.04 0.9L40.4 0.9C19.94 0.9 3.35 17.49 3.35 37.95L3.35 220.14C3.35 220.57 3.37 221 3.38 221.43L410.06 221.43Z" fill="#EF7823"/><path d="M148.69 51.88C225.99 9.95 362.97 6.99 362.97 6.99L40.4 6.99C23.1 6.99 9.02 21.07 9.02 38.37L9.02 215.17C9.02 215.17 30.89 115.79 148.69 51.88Z" fill="url(#linear-gradient)"/><path d="M4.69 221.43C4.69 221.14 4.67 220.86 4.67 220.57L4.67 38.37C4.66 18.66 20.69 2.63 40.4 2.63L373.04 2.63C392.74 2.63 408.77 18.67 408.77 38.37L408.77 220.57C408.77 220.86 408.75 221.15 408.75 221.43L411.38 221.43C411.38 221.14 411.4 220.86 411.4 220.57L411.4 38.37C411.4 17.21 394.19 0 373.03 0L40.4 0C19.24 0 2.03 17.21 2.03 38.37L2.03 220.57C2.03 220.86 2.05 221.15 2.05 221.43L4.68 221.43Z" fill="#B34B28"/><g><path d="M53.21 74.35C51.64 74.44 50.96 74.84 50.85 75.92 50.78 76.66 50.69 77.72 50.69 80.1L50.69 82.17C50.69 85.29 50.19 87.58 48.62 89.2 47.36 90.48 45.52 91.06 43.66 91.06 42 91.06 40.43 90.7 39.22 89.78 37.56 88.55 36.77 86.55 36.77 83.38L36.77 77.09C36.77 74.66 36.54 74.53 34.41 74.35L34.41 73.56 41.64 73.56 41.64 74.35C39.53 74.48 39.3 74.64 39.3 77.09L39.3 82.84C39.3 87.19 41.12 89.57 44.4 89.57 48.22 89.57 49.54 86.5 49.54 82.12L49.54 80.1C49.54 77.72 49.47 76.67 49.32 75.84 49.18 74.83 48.56 74.47 46.7 74.34L46.7 73.55 53.21 73.55 53.21 74.34Z" fill="#FFFFFF"/><path d="M61.15 90.71 61.15 90.01C62.68 89.85 62.86 89.63 62.86 87.77L62.86 83.48C62.86 81.64 62.12 80.54 60.48 80.54 59.47 80.54 58.48 81.17 57.67 81.84L57.67 87.94C57.67 89.74 57.81 89.85 59.37 90.01L59.37 90.71 53.42 90.71 53.42 90.01C55.21 89.79 55.35 89.67 55.35 87.9L55.35 82.6C55.35 80.89 55.17 80.78 53.76 80.53L53.76 79.86C55.04 79.66 56.43 79.32 57.67 78.81L57.67 80.94C58.21 80.54 58.79 80.13 59.47 79.68 60.23 79.19 60.89 78.9 61.69 78.9 63.82 78.9 65.17 80.4 65.17 83.01L65.17 87.93C65.17 89.73 65.33 89.81 66.88 90L66.88 90.7 61.14 90.7Z" fill="#FFFFFF"/><path d="M70.13 79.2 70.13 78.6C70.13 77.75 70.24 77.05 70.42 76.47 70.6 75.87 71.07 74.59 72.55 73.37 73.49 72.54 74.44 72.07 75.54 71.95 76.5 71.97 77.25 72.35 77.7 72.85 77.99 73.16 78.01 73.52 77.84 73.86 77.73 74.08 77.55 74.29 77.3 74.49 77.01 74.71 76.78 74.71 76.52 74.44 75.98 73.92 75.19 73.39 74.32 73.39 73.63 73.39 73.24 73.71 72.95 74.18 72.64 74.65 72.37 75.88 72.43 78.09L72.43 79.19 75.6 79.19C75.76 79.42 75.64 80.11 75.31 80.29L72.42 80.29 72.42 87.76C72.42 89.71 72.64 89.8 74.73 90.01L74.73 90.7 68.2 90.7 68.2 90C69.9 89.84 70.11 89.68 70.11 87.94L70.11 80.29 68.22 80.29 68.09 79.98 68.85 79.19 70.11 79.19Z" fill="#FFFFFF"/><path d="M82.37 78.9C85.8 78.9 88.32 81.55 88.32 84.74 88.32 89 85.07 91.02 82.35 91.02 78.51 91.02 76.27 88.13 76.27 85.23 76.27 80.92 79.8 78.9 82.35 78.9L82.37 78.9ZM82.03 79.78C80.48 79.78 79.04 81.35 79.04 84.32 79.04 87.66 80.48 90.09 82.65 90.09 84.2 90.09 85.59 89.04 85.59 85.35 85.59 82.19 84.33 79.78 82.07 79.78L82.03 79.78Z" fill="#FFFFFF"/><path d="M94.06 81.74C94.94 80.3 96.04 78.89 97.29 78.89 98.26 78.89 98.91 79.59 98.91 80.24 98.91 80.85 98.55 81.39 97.97 81.66 97.65 81.79 97.41 81.73 97.25 81.59 96.84 81.21 96.53 81.05 96.08 81.05 95.39 81.05 94.58 81.83 94.01 83.23L94.01 87.94C94.01 89.67 94.14 89.83 96.23 90L96.23 90.7 89.83 90.7 89.83 90C91.45 89.84 91.69 89.68 91.69 87.94L91.69 82.48C91.69 80.8 91.55 80.69 90.05 80.48L90.05 79.88C91.38 79.66 92.65 79.36 94.02 78.8L94.02 81.74 94.07 81.74Z" fill="#FFFFFF"/><path d="M105.69 90.65C105.2 90.92 104.79 91.01 104.55 91.01 102.76 91.01 101.77 90 101.77 87.87L101.77 80.3 99.95 80.3 99.82 79.99 100.56 79.2 101.77 79.2 101.77 77.29 103.74 75.45 104.1 75.52 104.1 79.2 107.09 79.2C107.36 79.49 107.27 80.07 106.91 80.3L104.1 80.3 104.1 86.96C104.1 89.09 105.02 89.45 105.69 89.45 106.32 89.45 106.92 89.2 107.31 89L107.54 89.72 105.68 90.66Z" fill="#FFFFFF"/><path d="M121.55 90.08C120.94 90.15 120.18 90.31 119.44 90.49 118.7 90.69 117.98 90.87 117.42 91.01L117.24 90.87 117.24 88.99C116.63 89.44 116.1 89.89 115.35 90.34 114.56 90.77 113.98 91.01 113.22 91.01 111.34 91.01 109.83 89.89 109.83 87.06L109.83 82.03C109.83 80.59 109.61 80.46 108.93 80.3L108.21 80.12 108.21 79.49C108.75 79.47 109.47 79.38 110.23 79.31 110.99 79.22 111.78 79.09 112.25 79.02 112.18 79.83 112.18 81.09 112.18 82.84L112.18 86.39C112.18 88.59 113.3 89.28 114.49 89.28 115.43 89.28 116.38 88.92 117.25 88.11L117.25 82.03C117.25 80.59 117.02 80.42 116.15 80.28L115.19 80.12 115.19 79.49C115.95 79.47 116.9 79.38 117.71 79.27 118.5 79.22 119.15 79.09 119.57 79.02L119.57 87.71C119.57 89.08 119.79 89.26 120.83 89.33L121.55 89.37 121.55 90.07Z" fill="#FFFFFF"/><path d="M130.42 90.71 130.42 90.01C131.95 89.85 132.13 89.63 132.13 87.77L132.13 83.48C132.13 81.64 131.39 80.54 129.75 80.54 128.74 80.54 127.75 81.17 126.94 81.84L126.94 87.94C126.94 89.74 127.08 89.85 128.64 90.01L128.64 90.71 122.69 90.71 122.69 90.01C124.48 89.79 124.62 89.67 124.62 87.9L124.62 82.6C124.62 80.89 124.44 80.78 123.03 80.53L123.03 79.86C124.31 79.66 125.7 79.32 126.94 78.81L126.94 80.94C127.48 80.54 128.06 80.13 128.74 79.68 129.5 79.19 130.16 78.9 130.96 78.9 133.09 78.9 134.44 80.4 134.44 83.01L134.44 87.93C134.44 89.73 134.6 89.81 136.15 90L136.15 90.7 130.41 90.7Z" fill="#FFFFFF"/><path d="M146.11 91.01C145.61 91.01 145.03 90.78 144.74 90.49 144.38 90.15 144.22 89.79 144.09 89.37 143.01 90.06 141.75 91.01 140.99 91.01 138.99 91.01 137.67 89.42 137.67 87.76 137.67 86.44 138.39 85.65 139.85 85.18 141.56 84.64 143.42 83.95 144 83.47L144 83C144 81.11 143.13 80.1 141.85 80.1 141.38 80.1 140.98 80.28 140.71 80.57 140.37 80.91 140.13 81.51 139.9 82.36 139.74 82.83 139.45 83.01 139.03 83.01 138.51 83.01 137.8 82.47 137.8 81.84 137.8 81.44 138.14 81.12 138.67 80.76 139.45 80.2 141.27 79.19 142.76 78.9 143.61 78.9 144.38 79.1 145 79.57 145.99 80.4 146.28 81.5 146.28 82.91L146.28 87.65C146.28 88.82 146.75 89.22 147.24 89.22 147.55 89.22 147.91 89.09 148.2 88.93L148.47 89.63 146.11 91.02ZM144 84.39C143.46 84.66 142.38 85.17 141.82 85.42 140.77 85.87 140.2 86.39 140.2 87.37 140.2 88.76 141.25 89.37 142.04 89.37 142.67 89.37 143.54 88.97 144.01 88.5L144.01 84.39Z" fill="#FFFFFF"/><path d="M154.42 90.65C153.93 90.92 153.52 91.01 153.28 91.01 151.49 91.01 150.5 90 150.5 87.87L150.5 80.3 148.68 80.3 148.55 79.99 149.29 79.2 150.5 79.2 150.5 77.29 152.47 75.45 152.83 75.52 152.83 79.2 155.82 79.2C156.09 79.49 156 80.07 155.64 80.3L152.83 80.3 152.83 86.96C152.83 89.09 153.75 89.45 154.42 89.45 155.05 89.45 155.65 89.2 156.04 89L156.27 89.72 154.41 90.66Z" fill="#FFFFFF"/><path d="M167.03 88.36C165.3 90.54 163.37 91.01 162.5 91.01 159.2 91.01 157.25 88.36 157.25 85.42 157.25 83.67 157.88 82.08 158.96 80.91 160.11 79.65 161.58 78.89 163 78.89L163.02 78.89C165.31 78.89 167.13 80.86 167.13 82.95 167.13 83.45 166.99 83.69 166.5 83.8 166.01 83.87 162.66 84.14 159.56 84.25 159.61 87.66 161.62 89.1 163.47 89.1 164.57 89.1 165.6 88.69 166.57 87.78L167.02 88.36ZM162.38 79.88C161.23 79.88 160.07 80.91 159.69 83.11 161.11 83.11 162.54 83.11 164.04 83.06 164.51 83.04 164.67 82.9 164.67 82.56 164.67 81.17 163.8 79.89 162.4 79.89L162.38 79.89Z" fill="#FFFFFF"/><path d="M168.06 90.71 168.06 90.01C169.74 89.81 169.97 89.67 169.97 87.9L169.97 75.53C169.97 73.74 169.79 73.69 168.13 73.53L168.13 72.88C169.57 72.72 171.3 72.27 172.28 71.96L172.28 87.9C172.28 89.69 172.51 89.85 174.26 90.01L174.26 90.71 168.06 90.71Z" fill="#FFFFFF"/><path d="M187.41 79.91C185.99 80.13 185.75 80.34 185.03 81.86 184.36 83.19 183.5 85.41 181.64 89.69 179.82 93.89 179.24 95.39 178.79 96.89 178.66 97.39 178.32 97.52 177.96 97.52 177.18 97.52 176.35 96.87 176.35 96.17 176.35 95.74 176.58 95.5 177.04 95.2 177.96 94.66 178.48 94.06 179.13 92.87 179.6 92 179.82 91.48 179.92 91.17 180.08 90.77 180.03 90.41 179.87 89.98 178.73 86.86 177.49 83.58 176.75 81.85 176.17 80.48 175.88 80.14 174.44 79.92L174.44 79.22 180.1 79.22 180.14 79.92C178.9 80.14 178.73 80.37 179.08 81.33L181.5 87.79C182.22 86.13 183.38 83.01 183.9 81.42 184.24 80.45 184.03 80.14 182.53 79.92L182.53 79.22 187.42 79.22 187.42 79.92Z" fill="#FFFFFF"/><path d="M187.47 87.16C188.46 87.16 190.01 88.24 190.01 90.1 190.01 92.23 188.06 93.4 186.31 93.89L186.02 93.08C187.37 92.54 188.15 91.82 188.15 90.83 188.15 89.84 187.41 89.24 186.4 89.01 186.27 89.01 186.08 88.78 186.08 88.31 186.08 87.62 186.75 87.17 187.43 87.17L187.47 87.17Z" fill="#FFFFFF"/><path d="M211.25 79.91C209.83 80.13 209.59 80.34 208.87 81.86 208.2 83.19 207.34 85.41 205.48 89.69 203.66 93.89 203.08 95.39 202.63 96.89 202.5 97.39 202.16 97.52 201.8 97.52 201.02 97.52 200.19 96.87 200.19 96.17 200.19 95.74 200.42 95.5 200.88 95.2 201.8 94.66 202.32 94.06 202.97 92.87 203.44 92 203.66 91.48 203.76 91.17 203.92 90.77 203.87 90.41 203.71 89.98 202.57 86.86 201.33 83.58 200.59 81.85 200.01 80.48 199.72 80.14 198.28 79.92L198.28 79.22 203.94 79.22 203.98 79.92C202.74 80.14 202.57 80.37 202.92 81.33L205.34 87.79C206.06 86.13 207.22 83.01 207.74 81.42 208.08 80.45 207.87 80.14 206.37 79.92L206.37 79.22 211.26 79.22 211.26 79.92Z" fill="#FFFFFF"/><path d="M217.58 78.9C221.01 78.9 223.53 81.55 223.53 84.74 223.53 89 220.28 91.02 217.56 91.02 213.72 91.02 211.48 88.13 211.48 85.23 211.48 80.92 215.01 78.9 217.56 78.9L217.58 78.9ZM217.24 79.78C215.69 79.78 214.25 81.35 214.25 84.32 214.25 87.66 215.69 90.09 217.86 90.09 219.41 90.09 220.8 89.04 220.8 85.35 220.8 82.19 219.54 79.78 217.28 79.78L217.24 79.78Z" fill="#FFFFFF"/><path d="M238.38 90.08C237.77 90.15 237.01 90.31 236.27 90.49 235.53 90.69 234.81 90.87 234.25 91.01L234.07 90.87 234.07 88.99C233.46 89.44 232.93 89.89 232.18 90.34 231.39 90.77 230.81 91.01 230.05 91.01 228.17 91.01 226.66 89.89 226.66 87.06L226.66 82.03C226.66 80.59 226.44 80.46 225.76 80.3L225.04 80.12 225.04 79.49C225.58 79.47 226.3 79.38 227.06 79.31 227.82 79.22 228.61 79.09 229.08 79.02 229.01 79.83 229.01 81.09 229.01 82.84L229.01 86.39C229.01 88.59 230.13 89.28 231.32 89.28 232.26 89.28 233.21 88.92 234.08 88.11L234.08 82.03C234.08 80.59 233.85 80.42 232.98 80.28L232.02 80.12 232.02 79.49C232.78 79.47 233.73 79.38 234.54 79.27 235.33 79.22 235.98 79.09 236.4 79.02L236.4 87.71C236.4 89.08 236.62 89.26 237.66 89.33L238.38 89.37 238.38 90.07Z" fill="#FFFFFF"/><path d="M246.33 90.71 246.33 90.01C248.01 89.81 248.24 89.67 248.24 87.9L248.24 75.53C248.24 73.74 248.06 73.69 246.4 73.53L246.4 72.88C247.84 72.72 249.57 72.27 250.55 71.96L250.55 87.9C250.55 89.69 250.78 89.85 252.53 90.01L252.53 90.71 246.33 90.71Z" fill="#FFFFFF"/><path d="M259.91 78.9C263.34 78.9 265.86 81.55 265.86 84.74 265.86 89 262.61 91.02 259.89 91.02 256.05 91.02 253.81 88.13 253.81 85.23 253.81 80.92 257.34 78.9 259.89 78.9L259.91 78.9ZM259.57 79.78C258.02 79.78 256.58 81.35 256.58 84.32 256.58 87.66 258.02 90.09 260.19 90.09 261.74 90.09 263.13 89.04 263.13 85.35 263.13 82.19 261.87 79.78 259.61 79.78L259.57 79.78Z" fill="#FFFFFF"/><path d="M274.76 82.41C274.24 80.86 273.3 79.76 271.98 79.76 271.01 79.76 270.32 80.48 270.32 81.51 270.32 82.59 271.33 83.22 272.54 83.69 274.58 84.5 275.97 85.46 275.97 87.32 275.97 89.79 273.7 91.02 271.48 91.02 270.09 91.02 268.83 90.53 268.38 90.15 268.2 89.81 267.95 87.95 267.91 86.9L268.65 86.79C269.15 88.56 270.36 90.13 271.95 90.13 272.92 90.13 273.79 89.39 273.79 88.34 273.79 87.29 273.09 86.66 271.72 86.05 270.17 85.35 268.31 84.44 268.31 82.35 268.31 80.47 269.93 78.89 272.46 78.89 273.61 78.89 274.34 79.12 274.88 79.36 275.11 79.94 275.44 81.56 275.49 82.19L274.77 82.41Z" fill="#FFFFFF"/><path d="M282.93 90.65C282.44 90.92 282.03 91.01 281.79 91.01 280 91.01 279.01 90 279.01 87.87L279.01 80.3 277.19 80.3 277.06 79.99 277.8 79.2 279.01 79.2 279.01 77.29 280.98 75.45 281.34 75.52 281.34 79.2 284.33 79.2C284.6 79.49 284.51 80.07 284.15 80.3L281.34 80.3 281.34 86.96C281.34 89.09 282.26 89.45 282.93 89.45 283.56 89.45 284.16 89.2 284.55 89L284.78 89.72 282.92 90.66Z" fill="#FFFFFF"/><path d="M48.5 130.76C48.32 131.75 47.8 134.19 47.56 135.03L34.32 135.03 34.32 134.27C36.75 134.09 36.99 133.84 36.99 131.67L36.99 121.34C36.99 118.92 36.76 118.85 34.66 118.67L34.66 117.88 46.89 117.88C46.93 118.57 47.03 120.31 47.14 121.79L46.31 121.9C46.06 120.8 45.77 120.19 45.43 119.61 45.03 119.03 44.29 118.85 42.44 118.85L40.44 118.85C39.56 118.85 39.5 118.92 39.5 119.72L39.5 125.64 41.97 125.64C44.39 125.64 44.57 125.42 44.91 123.64L45.72 123.64 45.72 128.82 44.91 128.82C44.53 126.89 44.33 126.75 41.97 126.75L39.5 126.75 39.5 131.6C39.5 132.84 39.64 133.44 40.15 133.76 40.67 134.07 41.68 134.07 42.91 134.07 44.88 134.07 45.69 133.89 46.3 133.2 46.77 132.64 47.27 131.72 47.67 130.66L48.5 130.77Z" fill="#FFFFFF"/><path d="M57.63 135.03 57.63 134.33C59.16 134.17 59.34 133.95 59.34 132.09L59.34 127.8C59.34 125.96 58.6 124.86 56.96 124.86 55.95 124.86 54.96 125.49 54.15 126.16L54.15 132.26C54.15 134.06 54.29 134.17 55.85 134.33L55.85 135.03 49.9 135.03 49.9 134.33C51.69 134.11 51.83 133.99 51.83 132.22L51.83 126.92C51.83 125.21 51.65 125.1 50.24 124.85L50.24 124.18C51.52 123.98 52.91 123.64 54.15 123.13L54.15 125.26C54.69 124.86 55.27 124.45 55.95 124 56.71 123.51 57.37 123.22 58.17 123.22 60.3 123.22 61.65 124.72 61.65 127.33L61.65 132.25C61.65 134.05 61.81 134.13 63.36 134.32L63.36 135.02 57.62 135.02Z" fill="#FFFFFF"/><path d="M69.8 134.98C69.31 135.25 68.9 135.34 68.66 135.34 66.87 135.34 65.88 134.33 65.88 132.2L65.88 124.63 64.06 124.63 63.93 124.32 64.67 123.53 65.88 123.53 65.88 121.62 67.85 119.78 68.21 119.85 68.21 123.53 71.2 123.53C71.47 123.82 71.38 124.4 71.02 124.63L68.21 124.63 68.21 131.29C68.21 133.42 69.13 133.78 69.8 133.78 70.43 133.78 71.03 133.53 71.42 133.33L71.65 134.05 69.79 134.99Z" fill="#FFFFFF"/><path d="M82.41 132.69C80.68 134.87 78.75 135.34 77.88 135.34 74.58 135.34 72.63 132.69 72.63 129.75 72.63 128 73.26 126.41 74.34 125.24 75.49 123.98 76.96 123.22 78.38 123.22L78.4 123.22C80.69 123.22 82.51 125.19 82.51 127.28 82.51 127.78 82.37 128.02 81.88 128.13 81.39 128.2 78.04 128.47 74.94 128.58 74.99 131.99 77 133.43 78.85 133.43 79.95 133.43 80.98 133.02 81.95 132.11L82.4 132.69ZM77.76 124.21C76.61 124.21 75.45 125.24 75.07 127.44 76.49 127.44 77.92 127.44 79.42 127.39 79.89 127.37 80.05 127.23 80.05 126.89 80.05 125.5 79.18 124.22 77.78 124.22L77.76 124.22Z" fill="#FFFFFF"/><path d="M88.27 126.07C89.15 124.63 90.25 123.22 91.5 123.22 92.47 123.22 93.12 123.92 93.12 124.57 93.12 125.18 92.76 125.72 92.18 125.99 91.86 126.12 91.62 126.06 91.46 125.92 91.05 125.54 90.74 125.38 90.29 125.38 89.6 125.38 88.79 126.16 88.22 127.56L88.22 132.27C88.22 134 88.35 134.16 90.44 134.33L90.44 135.03 84.04 135.03 84.04 134.33C85.66 134.17 85.9 134.01 85.9 132.27L85.9 126.81C85.9 125.13 85.76 125.02 84.26 124.81L84.26 124.21C85.59 123.99 86.86 123.69 88.23 123.13L88.23 126.07 88.28 126.07Z" fill="#FFFFFF"/><path d="M103.22 123.53 103.22 122.93C103.22 122.08 103.33 121.38 103.51 120.8 103.69 120.2 104.16 118.92 105.64 117.7 106.58 116.87 107.53 116.4 108.63 116.28 109.59 116.3 110.34 116.68 110.79 117.18 111.08 117.49 111.1 117.85 110.93 118.19 110.82 118.41 110.64 118.62 110.39 118.82 110.1 119.04 109.87 119.04 109.61 118.77 109.07 118.25 108.28 117.72 107.41 117.72 106.72 117.72 106.33 118.04 106.04 118.51 105.73 118.98 105.46 120.21 105.52 122.42L105.52 123.52 108.69 123.52C108.85 123.75 108.73 124.44 108.4 124.62L105.51 124.62 105.51 132.09C105.51 134.04 105.73 134.13 107.82 134.34L107.82 135.03 101.29 135.03 101.29 134.33C102.99 134.17 103.2 134.01 103.2 132.27L103.2 124.62 101.31 124.62 101.18 124.31 101.94 123.52 103.2 123.52Z" fill="#FFFFFF"/><path d="M114.08 126.07C114.96 124.63 116.06 123.22 117.31 123.22 118.28 123.22 118.93 123.92 118.93 124.57 118.93 125.18 118.57 125.72 117.99 125.99 117.67 126.12 117.43 126.06 117.27 125.92 116.86 125.54 116.55 125.38 116.1 125.38 115.41 125.38 114.6 126.16 114.03 127.56L114.03 132.27C114.03 134 114.16 134.16 116.25 134.33L116.25 135.03 109.85 135.03 109.85 134.33C111.47 134.17 111.71 134.01 111.71 132.27L111.71 126.81C111.71 125.13 111.57 125.02 110.07 124.81L110.07 124.21C111.4 123.99 112.67 123.69 114.04 123.13L114.04 126.07 114.09 126.07Z" fill="#FFFFFF"/><path d="M125.86 123.22C129.29 123.22 131.81 125.87 131.81 129.06 131.81 133.32 128.56 135.34 125.84 135.34 122 135.34 119.76 132.45 119.76 129.55 119.76 125.24 123.29 123.22 125.84 123.22L125.86 123.22ZM125.52 124.1C123.97 124.1 122.53 125.67 122.53 128.64 122.53 131.98 123.97 134.41 126.14 134.41 127.69 134.41 129.08 133.36 129.08 129.67 129.08 126.51 127.82 124.1 125.56 124.1L125.52 124.1Z" fill="#FFFFFF"/><path d="M148.2 135.03 148.2 134.33C149.7 134.17 150 134.04 150 132.17L150 127.91C150 125.93 149.24 124.86 147.69 124.86 146.82 124.86 145.85 125.36 144.84 126.18 144.88 126.5 144.91 126.81 144.91 127.28L144.91 132.35C144.91 134.01 145.16 134.17 146.62 134.33L146.62 135.03 140.72 135.03 140.72 134.33C142.33 134.17 142.56 134.04 142.56 132.31L142.56 127.86C142.56 125.88 141.82 124.87 140.29 124.87 139.28 124.87 138.29 125.54 137.48 126.17L137.48 132.32C137.48 134.02 137.71 134.18 138.94 134.34L138.94 135.04 133.17 135.04 133.17 134.34C134.9 134.18 135.15 134.02 135.15 132.28L135.15 126.92C135.15 125.24 135.06 125.08 133.53 124.85L133.53 124.18C134.68 124 136.18 123.66 137.44 123.13L137.44 125.29C138.02 124.91 138.59 124.42 139.41 123.94 140.13 123.51 140.78 123.22 141.63 123.22 142.91 123.22 144.06 124.03 144.62 125.38 145.41 124.8 146.17 124.32 146.82 123.88 147.4 123.52 148.08 123.21 148.84 123.21 150.97 123.21 152.34 124.67 152.34 127.32L152.34 132.3C152.34 134.05 152.52 134.12 154.07 134.32L154.07 135.02 148.19 135.02Z" fill="#FFFFFF"/><path d="M168.19 134.98C167.7 135.25 167.29 135.34 167.05 135.34 165.26 135.34 164.27 134.33 164.27 132.2L164.27 124.63 162.45 124.63 162.32 124.32 163.06 123.53 164.27 123.53 164.27 121.62 166.24 119.78 166.6 119.85 166.6 123.53 169.59 123.53C169.86 123.82 169.77 124.4 169.41 124.63L166.6 124.63 166.6 131.29C166.6 133.42 167.52 133.78 168.19 133.78 168.82 133.78 169.42 133.53 169.81 133.33L170.04 134.05 168.18 134.99Z" fill="#FFFFFF"/><path d="M178.52 135.03 178.52 134.33C180.03 134.17 180.25 133.99 180.25 132.27L180.25 128C180.25 125.82 179.35 124.79 177.69 124.79 176.72 124.79 175.72 125.26 174.98 126.07L174.98 132.27C174.98 133.95 175.14 134.16 176.68 134.33L176.68 135.03 170.84 135.03 170.84 134.33C172.45 134.17 172.68 134.01 172.68 132.27L172.68 119.74C172.68 118.08 172.61 117.99 170.89 117.83L170.89 117.2C172.15 117.02 173.88 116.62 174.98 116.28L174.98 125.14C175.99 124.17 177.4 123.23 178.82 123.23 181.02 123.23 182.57 124.56 182.57 127.79L182.57 132.28C182.57 134.05 182.77 134.17 184.3 134.34L184.3 135.04 178.51 135.04Z" fill="#FFFFFF"/><path d="M185.66 135.03 185.66 134.33C187.34 134.17 187.54 134.01 187.54 132.17L187.54 126.87C187.54 125.21 187.45 125.08 185.86 124.81L185.86 124.18C187.3 123.95 188.66 123.64 189.86 123.17L189.86 132.17C189.86 133.99 190.04 134.14 191.75 134.33L191.75 135.03 185.65 135.03ZM187.07 119.56C187.07 118.71 187.76 118.08 188.55 118.08 189.34 118.08 189.96 118.71 189.96 119.56 189.96 120.32 189.35 120.98 188.52 120.98 187.76 120.98 187.08 120.31 187.08 119.56Z" fill="#FFFFFF"/><path d="M200.05 126.74C199.53 125.19 198.59 124.09 197.27 124.09 196.3 124.09 195.61 124.81 195.61 125.84 195.61 126.92 196.62 127.55 197.83 128.02 199.87 128.83 201.26 129.79 201.26 131.65 201.26 134.12 198.99 135.35 196.77 135.35 195.38 135.35 194.12 134.86 193.67 134.48 193.49 134.14 193.24 132.28 193.2 131.23L193.94 131.12C194.44 132.89 195.65 134.46 197.24 134.46 198.21 134.46 199.08 133.72 199.08 132.67 199.08 131.62 198.38 130.99 197.01 130.38 195.46 129.68 193.6 128.77 193.6 126.68 193.6 124.8 195.22 123.22 197.75 123.22 198.9 123.22 199.63 123.45 200.17 123.69 200.4 124.27 200.73 125.89 200.78 126.52L200.06 126.74Z" fill="#FFFFFF"/><path d="M209.59 135.03 209.59 134.33C211.27 134.13 211.5 133.99 211.5 132.22L211.5 119.85C211.5 118.06 211.32 118.01 209.66 117.85L209.66 117.2C211.1 117.04 212.83 116.59 213.81 116.28L213.81 132.22C213.81 134.01 214.04 134.17 215.79 134.33L215.79 135.03 209.59 135.03Z" fill="#FFFFFF"/><path d="M216.99 135.03 216.99 134.33C218.67 134.17 218.87 134.01 218.87 132.17L218.87 126.87C218.87 125.21 218.78 125.08 217.19 124.81L217.19 124.18C218.63 123.95 219.99 123.64 221.19 123.17L221.19 132.17C221.19 133.99 221.37 134.14 223.08 134.33L223.08 135.03 216.98 135.03ZM218.4 119.56C218.4 118.71 219.09 118.08 219.88 118.08 220.67 118.08 221.29 118.71 221.29 119.56 221.29 120.32 220.68 120.98 219.85 120.98 219.09 120.98 218.41 120.31 218.41 119.56Z" fill="#FFFFFF"/><path d="M233.76 135.09C232.53 133.76 230.86 131.57 229.45 129.9 229.13 129.5 228.91 129.36 228.67 129.36 228.56 129.34 228.44 129.36 228.27 129.4L228.27 132.27C228.27 134.02 228.5 134.15 230.22 134.34L230.22 135.04 224.02 135.04 224.02 134.34C225.81 134.14 225.99 133.96 225.99 132.27L225.99 119.86C225.99 118.15 225.83 118 224.2 117.84L224.2 117.21C225.46 117.08 227.09 116.65 228.28 116.29L228.28 128.72C229.07 128.56 229.51 128.2 229.94 127.8 230.52 127.24 231.33 126.18 231.78 125.49 232.32 124.7 232.21 124.48 230.99 124.34L230.99 123.62 236.62 123.39 236.62 124.08C234.8 124.37 234.11 124.66 233.09 125.61 232.39 126.28 231.94 126.78 230.84 128.04 231.4 128.85 234.18 132.01 235.02 132.91 235.94 133.87 236.7 134.3 237.67 134.35L237.67 135.05 233.77 135.1Z" fill="#FFFFFF"/><path d="M253.8 135.34C253.3 135.34 252.72 135.11 252.43 134.82 252.07 134.48 251.91 134.12 251.78 133.7 250.7 134.39 249.44 135.34 248.68 135.34 246.68 135.34 245.36 133.75 245.36 132.09 245.36 130.77 246.08 129.98 247.54 129.51 249.25 128.97 251.11 128.28 251.69 127.8L251.69 127.33C251.69 125.44 250.82 124.43 249.54 124.43 249.07 124.43 248.67 124.61 248.4 124.9 248.06 125.24 247.82 125.84 247.59 126.69 247.43 127.16 247.14 127.34 246.72 127.34 246.2 127.34 245.49 126.8 245.49 126.17 245.49 125.77 245.83 125.45 246.36 125.09 247.14 124.53 248.96 123.52 250.45 123.23 251.3 123.23 252.07 123.43 252.69 123.9 253.68 124.73 253.97 125.83 253.97 127.24L253.97 131.98C253.97 133.15 254.44 133.55 254.93 133.55 255.24 133.55 255.6 133.42 255.89 133.26L256.16 133.96 253.8 135.35ZM251.69 128.72C251.15 128.99 250.07 129.5 249.51 129.75 248.46 130.2 247.89 130.72 247.89 131.7 247.89 133.09 248.94 133.7 249.73 133.7 250.36 133.7 251.23 133.3 251.7 132.83L251.7 128.72Z" fill="#FFFFFF"/><path d="M264.6 135.03 264.6 134.33C266.13 134.17 266.31 133.95 266.31 132.09L266.31 127.8C266.31 125.96 265.57 124.86 263.93 124.86 262.92 124.86 261.93 125.49 261.12 126.16L261.12 132.26C261.12 134.06 261.26 134.17 262.82 134.33L262.82 135.03 256.87 135.03 256.87 134.33C258.66 134.11 258.8 133.99 258.8 132.22L258.8 126.92C258.8 125.21 258.62 125.1 257.21 124.85L257.21 124.18C258.49 123.98 259.88 123.64 261.12 123.13L261.12 125.26C261.66 124.86 262.24 124.45 262.92 124 263.68 123.51 264.34 123.22 265.14 123.22 267.27 123.22 268.62 124.72 268.62 127.33L268.62 132.25C268.62 134.05 268.78 134.13 270.33 134.32L270.33 135.02 264.59 135.02Z" fill="#FFFFFF"/><path d="M284.96 134.35C284.38 134.46 282.29 134.8 280.6 135.34L280.6 133.64 279.01 134.58C277.95 135.19 277.24 135.34 276.95 135.34 274.71 135.34 271.85 133.43 271.85 129.73 271.85 126.03 275.13 123.22 278.87 123.22 279.25 123.22 279.95 123.29 280.6 123.51L280.6 119.79C280.6 118.08 280.42 118 278.53 117.88L278.53 117.19C280.03 117.01 281.87 116.61 282.93 116.27L282.93 131.91C282.93 133.35 283.13 133.48 284.21 133.59L284.97 133.66 284.97 134.35ZM280.6 125.6C279.95 124.68 278.9 124.23 277.88 124.23 276.74 124.23 274.51 125.19 274.51 129.01 274.51 132.17 276.51 133.61 278.17 133.61 279.05 133.61 279.96 133.21 280.6 132.78L280.6 125.6Z" fill="#FFFFFF"/><path d="M303.2 132.69C301.47 134.87 299.54 135.34 298.67 135.34 295.37 135.34 293.42 132.69 293.42 129.75 293.42 128 294.05 126.41 295.13 125.24 296.28 123.98 297.75 123.22 299.17 123.22L299.19 123.22C301.48 123.22 303.3 125.19 303.3 127.28 303.3 127.78 303.16 128.02 302.67 128.13 302.18 128.2 298.83 128.47 295.73 128.58 295.78 131.99 297.79 133.43 299.64 133.43 300.74 133.43 301.77 133.02 302.74 132.11L303.19 132.69ZM298.55 124.21C297.4 124.21 296.24 125.24 295.86 127.44 297.28 127.44 298.71 127.44 300.21 127.39 300.68 127.37 300.84 127.23 300.84 126.89 300.84 125.5 299.97 124.22 298.57 124.22L298.55 124.22Z" fill="#FFFFFF"/><path d="M312.49 135.03 312.49 134.33C314.02 134.17 314.2 133.95 314.2 132.09L314.2 127.8C314.2 125.96 313.46 124.86 311.82 124.86 310.81 124.86 309.82 125.49 309.01 126.16L309.01 132.26C309.01 134.06 309.15 134.17 310.71 134.33L310.71 135.03 304.76 135.03 304.76 134.33C306.55 134.11 306.69 133.99 306.69 132.22L306.69 126.92C306.69 125.21 306.51 125.1 305.1 124.85L305.1 124.18C306.38 123.98 307.77 123.64 309.01 123.13L309.01 125.26C309.55 124.86 310.13 124.45 310.81 124 311.57 123.51 312.23 123.22 313.03 123.22 315.16 123.22 316.51 124.72 316.51 127.33L316.51 132.25C316.51 134.05 316.67 134.13 318.22 134.32L318.22 135.02 312.48 135.02Z" fill="#FFFFFF"/><path d="M319.27 124.18C320.71 123.98 322.14 123.64 323.4 123.17L323.4 132.06C323.4 133.83 323.26 134.96 322.77 136.32 321.8 138.95 320.06 141.01 319.4 141.53 319.11 141.73 318.91 141.84 318.66 141.84 318.3 141.84 317.72 141.3 317.72 140.63 317.72 140.29 317.9 140.05 318.28 139.98 319.22 139.82 319.9 139.51 320.25 139.06 320.54 138.66 320.75 138.07 320.88 137.11 321.01 135.94 321.06 134.3 321.06 131.92L321.06 126.98C321.06 125.16 320.88 125.05 319.27 124.82L319.27 124.19ZM320.6 119.56C320.6 118.71 321.27 118.08 322.04 118.08 322.87 118.08 323.46 118.71 323.46 119.56 323.46 120.32 322.86 120.98 322.02 120.98 321.26 120.98 320.6 120.31 320.6 119.56Z" fill="#FFFFFF"/><path d="M332.51 123.22C335.94 123.22 338.46 125.87 338.46 129.06 338.46 133.32 335.21 135.34 332.49 135.34 328.65 135.34 326.41 132.45 326.41 129.55 326.41 125.24 329.94 123.22 332.49 123.22L332.51 123.22ZM332.17 124.1C330.62 124.1 329.18 125.67 329.18 128.64 329.18 131.98 330.62 134.41 332.79 134.41 334.34 134.41 335.73 133.36 335.73 129.67 335.73 126.51 334.47 124.1 332.21 124.1L332.17 124.1Z" fill="#FFFFFF"/><path d="M352 124.23C350.58 124.45 350.34 124.66 349.62 126.18 348.95 127.51 348.09 129.73 346.23 134.01 344.41 138.21 343.83 139.71 343.38 141.21 343.25 141.71 342.91 141.84 342.55 141.84 341.77 141.84 340.94 141.19 340.94 140.49 340.94 140.06 341.17 139.82 341.63 139.52 342.55 138.98 343.07 138.38 343.72 137.19 344.19 136.32 344.41 135.8 344.51 135.49 344.67 135.09 344.62 134.73 344.46 134.3 343.32 131.18 342.08 127.9 341.34 126.17 340.76 124.8 340.47 124.46 339.03 124.24L339.03 123.54 344.69 123.54 344.73 124.24C343.49 124.46 343.32 124.69 343.67 125.65L346.09 132.11C346.81 130.45 347.97 127.33 348.49 125.74 348.83 124.77 348.62 124.46 347.12 124.24L347.12 123.54 352.01 123.54 352.01 124.24Z" fill="#FFFFFF"/><path d="M359.52 135.03 359.52 134.33C361.2 134.17 361.4 134.01 361.4 132.17L361.4 126.87C361.4 125.21 361.31 125.08 359.72 124.81L359.72 124.18C361.16 123.95 362.52 123.64 363.72 123.17L363.72 132.17C363.72 133.99 363.9 134.14 365.61 134.33L365.61 135.03 359.51 135.03ZM360.93 119.56C360.93 118.71 361.62 118.08 362.41 118.08 363.2 118.08 363.82 118.71 363.82 119.56 363.82 120.32 363.21 120.98 362.38 120.98 361.62 120.98 360.94 120.31 360.94 119.56Z" fill="#FFFFFF"/><path d="M372.04 134.98C371.55 135.25 371.14 135.34 370.9 135.34 369.11 135.34 368.12 134.33 368.12 132.2L368.12 124.63 366.3 124.63 366.17 124.32 366.91 123.53 368.12 123.53 368.12 121.62 370.09 119.78 370.45 119.85 370.45 123.53 373.44 123.53C373.71 123.82 373.62 124.4 373.26 124.63L370.45 124.63 370.45 131.29C370.45 133.42 371.37 133.78 372.04 133.78 372.67 133.78 373.27 133.53 373.66 133.33L373.89 134.05 372.03 134.99Z" fill="#FFFFFF"/></g></svg>