<svg viewBox="0 0 92.46 91.07" xmlns="http://www.w3.org/2000/svg" xmlns:xlink="http://www.w3.org/1999/xlink" id="Layer_1" overflow="hidden"><defs><linearGradient x1="740.33" y1="527.17" x2="797.72" y2="590.91" gradientUnits="userSpaceOnUse" id="linear-gradient"><stop offset="0" stop-color="#D3D6D9"/><stop offset="0.04" stop-color="#D8DADD"/><stop offset="0.26" stop-color="#EDEFF0"/><stop offset="0.47" stop-color="#FBFBFB"/><stop offset="0.66" stop-color="#FFFFFF"/></linearGradient></defs><ellipse cx="45.71" cy="47.92" rx="45.71" ry="43.15" fill="#231F20" opacity="0.54"/><path d="M799.83 528.22C816.603 545.482 816.207 573.072 798.945 589.845 782.035 606.276 755.123 606.279 738.21 589.85 754.983 607.112 782.573 607.508 799.835 590.735 817.097 573.962 817.493 546.372 800.72 529.11 800.428 528.809 800.131 528.512 799.83 528.22Z" fill="#D2D3D4" transform="translate(-720.71 -514.89)"/><path d="M812.14 558.52C812.107 534.451 792.569 514.967 768.5 515 744.431 515.033 724.947 534.571 724.98 558.64 725.013 582.666 744.484 602.132 768.51 602.16 792.518 602.249 812.051 582.858 812.14 558.851 812.14 558.74 812.14 558.63 812.14 558.52Z" fill="url(#linear-gradient)" transform="translate(-720.71 -514.89)"/><path d="M772 576.31 772 574.31C776.38 573.69 777 573.08 776.05 570.31 775.1 567.54 773.79 564.14 772.29 560.19L757.2 560.19C756.03 563.34 755.09 566.03 754.2 568.75 752.7 572.94 753.26 573.75 758.58 574.31L758.58 576.31 743 576.31 743 574.31C747.57 573.6 748.56 573.13 751.05 567.01L765.82 531.12 768.27 530.5C772.78 542.69 777.27 554.92 781.96 567.01 784.22 573.08 785.21 573.84 789.77 574.31L789.77 576.31ZM765.11 540 765 540C762.74 545.69 760.53 551.58 758.41 557.13L771.3 557.13Z" fill="#666766" transform="translate(-720.71 -514.89)"/><path d="M769.54 515.92C780.852 515.924 791.718 520.336 799.83 528.22 783.057 510.958 755.467 510.562 738.205 527.335 720.943 544.108 720.547 571.698 737.32 588.96 737.612 589.261 737.909 589.558 738.21 589.85 721.448 572.578 721.862 544.987 739.134 528.225 747.28 520.32 758.189 515.906 769.54 515.92Z" fill="#FFFFFF" transform="translate(-720.71 -514.89)"/><path d="M781.77 574.56C782.59 575.17 786.48 575.89 789.06 576.31L789.7 576.31 789.7 574.31C785.13 573.84 784.15 573.08 781.89 567.01 777.23 554.92 772.71 542.69 768.2 530.5L766.43 530.95C769.33 539.72 780.68 573.74 781.77 574.56Z" fill="#414042" transform="translate(-720.71 -514.89)"/></svg>