<svg viewBox="0 0 92.46 90.04" xmlns="http://www.w3.org/2000/svg" xmlns:xlink="http://www.w3.org/1999/xlink" id="Layer_1" overflow="hidden"><defs><linearGradient x1="680.72" y1="754.94" x2="738.11" y2="818.67" gradientUnits="userSpaceOnUse" id="linear-gradient"><stop offset="0" stop-color="#D3D6D9"/><stop offset="0.04" stop-color="#D8DADD"/><stop offset="0.26" stop-color="#EDEFF0"/><stop offset="0.47" stop-color="#FBFBFB"/><stop offset="0.66" stop-color="#FFFFFF"/></linearGradient></defs><ellipse cx="45.71" cy="46.89" rx="45.71" ry="43.15" fill="#231F20" opacity="0.53"/><path d="M740.22 756C756.911 773.341 756.384 800.929 739.043 817.62 722.173 833.858 695.486 833.863 678.61 817.63 695.301 834.971 722.889 835.498 740.23 818.807 757.571 802.116 758.098 774.527 741.407 757.187 741.019 756.783 740.623 756.388 740.22 756Z" fill="#D2D3D4" transform="translate(-661.11 -743.69)"/><path d="M752.53 786.29C752.502 762.221 732.969 742.732 708.9 742.76 684.831 742.788 665.342 762.321 665.37 786.39 665.398 810.419 684.87 829.892 708.9 829.92 732.874 830.042 752.408 810.706 752.53 786.731 752.531 786.584 752.531 786.437 752.53 786.29Z" fill="url(#linear-gradient)" transform="translate(-661.11 -743.69)"/><path d="M719.87 785.28C727.87 786.33 734.08 789.7 734.08 797.44 734.08 802.59 731.24 806.6 726.61 809.12 722.55 811.28 717.18 812.18 710.92 812.18L692.81 812.18 692.81 810C699.55 809.53 700.08 809 700.08 802.53L700.08 771.91C700.08 765.33 699.71 764.85 693.5 764.43L693.5 762.11 714.34 762.11C720.34 762.11 723.76 763.01 726.4 764.8 729.224 766.83 730.875 770.113 730.82 773.59 730.82 780.91 724.45 783.91 719.82 785.01ZM710.81 784.28C719.34 784.28 722.92 780.96 722.92 774.59 722.92 769.06 719.82 764.69 712.66 764.69 711.145 764.614 709.637 764.942 708.29 765.64 707.6 766.12 707.39 767.01 707.39 769.38L707.39 784.28ZM707.39 802.28C707.39 808.02 708.92 809.49 713.87 809.44 720.03 809.33 725.61 806.17 725.61 798.23 725.61 790.49 720.24 786.96 710.61 786.96L707.34 786.96Z" fill="#666766" transform="translate(-661.11 -743.69)"/><path d="M719.87 785.28 719.87 785C724.45 783.9 730.87 780.9 730.87 773.58 730.925 770.103 729.274 766.82 726.45 764.79 725.023 763.834 723.428 763.156 721.75 762.79 724.87 765.63 728.09 770.38 727.02 776.52 725.66 784.26 715.21 785.45 715.21 785.45 715.21 785.45 728 785.66 729.86 793.78 731.48 800.84 729.58 805.86 724.31 810.15 725.113 809.865 725.898 809.531 726.66 809.15 731.29 806.62 734.13 802.62 734.13 797.46 734.08 789.71 727.92 786.34 719.87 785.28Z" fill="#414042" transform="translate(-661.11 -743.69)"/></svg>