<svg viewBox="0 0 92.46 91.07" xmlns="http://www.w3.org/2000/svg" xmlns:xlink="http://www.w3.org/1999/xlink" id="Layer_1" overflow="hidden"><defs><linearGradient x1="887.68" y1="722.73" x2="945.07" y2="786.47" gradientUnits="userSpaceOnUse" id="linear-gradient"><stop offset="0" stop-color="#D3D6D9"/><stop offset="0.04" stop-color="#D8DADD"/><stop offset="0.26" stop-color="#EDEFF0"/><stop offset="0.47" stop-color="#FBFBFB"/><stop offset="0.66" stop-color="#FFFFFF"/></linearGradient></defs><ellipse cx="45.71" cy="47.92" rx="45.71" ry="43.15" fill="#231F20" opacity="0.5"/><path d="M947.18 723.78C963.953 741.042 963.557 768.632 946.295 785.405 929.385 801.836 902.473 801.839 885.56 785.41 902.333 802.672 929.923 803.068 947.185 786.295 964.447 769.522 964.843 741.932 948.07 724.67 947.778 724.369 947.481 724.072 947.18 723.78Z" fill="#D2D3D4" transform="translate(-868.07 -710.45)"/><path d="M959.49 754.08C959.457 730.011 939.919 710.527 915.85 710.56 891.781 710.593 872.297 730.131 872.33 754.2 872.363 778.226 891.834 797.692 915.86 797.72 939.868 797.809 959.401 778.418 959.49 754.411 959.49 754.3 959.49 754.19 959.49 754.08Z" fill="url(#linear-gradient)" transform="translate(-868.07 -710.45)"/><path d="M916.89 711.48C928.202 711.484 939.068 715.896 947.18 723.78 930.407 706.518 902.817 706.122 885.555 722.895 868.293 739.668 867.897 767.258 884.67 784.52 884.962 784.821 885.259 785.118 885.56 785.41 868.798 768.138 869.212 740.547 886.484 723.785 894.63 715.88 905.539 711.466 916.89 711.48Z" fill="#FFFFFF" transform="translate(-868.07 -710.45)"/><path d="M935.73 765.21C934.664 768.986 933.282 772.666 931.6 776.21 929.52 776.68 923.27 778.21 918.01 778.21 899.73 778.21 891.58 766.13 891.58 755.21 891.58 740.62 903.37 731.05 919.81 731.05 925.87 731.05 930.99 732.71 932.98 733.05 933.55 736.98 934.07 739.97 934.49 743.9L932.36 744.37C930.42 736.7 925.68 733.67 917.96 733.67 905.88 733.67 899.44 743.42 899.44 753.75 899.44 766.82 907.44 775.54 918.58 775.54 925.92 775.54 929.95 771.61 933.69 764.45Z" fill="#666766" transform="translate(-868.07 -710.45)"/><path d="M926.47 735.42C929.47 737.07 931.47 739.94 932.61 744.33L934.74 743.86C934.32 739.93 933.74 736.94 933.23 733.02 931.23 732.68 926.11 731.02 920.04 731.02 919.7 731.02 919.37 731.02 919.04 731.02 921.811 731.921 924.348 733.423 926.47 735.42Z" fill="#414042" transform="translate(-868.07 -710.45)"/><path d="M933.94 764.4C933.37 765.48 932.8 766.45 932.21 767.4 930.11 771.95 926.3 775.4 920.61 778.1 924.398 777.749 928.155 777.117 931.85 776.21 933.527 772.663 934.908 768.984 935.98 765.21Z" fill="#414042" transform="translate(-868.07 -710.45)"/></svg>