<svg viewBox="0 0 92.46 91.07" xmlns="http://www.w3.org/2000/svg" xmlns:xlink="http://www.w3.org/1999/xlink" id="Layer_1" overflow="hidden"><defs><linearGradient x1="795.22" y1="786.76" x2="852.61" y2="850.5" gradientUnits="userSpaceOnUse" id="linear-gradient"><stop offset="0" stop-color="#D3D6D9"/><stop offset="0.04" stop-color="#D8DADD"/><stop offset="0.26" stop-color="#EDEFF0"/><stop offset="0.47" stop-color="#FBFBFB"/><stop offset="0.66" stop-color="#FFFFFF"/></linearGradient></defs><ellipse cx="45.71" cy="47.92" rx="45.71" ry="43.15" fill="#231F20" opacity="0.53"/><path d="M854.73 787.81C871.636 804.942 871.452 832.534 854.321 849.44 837.354 866.183 810.083 866.188 793.11 849.45 809.749 866.849 837.342 867.464 854.74 850.825 872.139 834.186 872.755 806.594 856.116 789.195 855.664 788.723 855.202 788.261 854.73 787.81Z" fill="#D2D3D4" transform="translate(-775.61 -774.49)"/><path d="M867 818.11C866.967 794.041 847.429 774.557 823.36 774.59 799.291 774.623 779.807 794.161 779.84 818.23 779.873 842.256 799.344 861.722 823.37 861.75 847.383 861.833 866.917 842.434 867 818.421 867 818.317 867 818.214 867 818.11Z" fill="url(#linear-gradient)" transform="translate(-775.61 -774.49)"/><path d="M824.43 775.52C835.744 775.519 846.613 779.928 854.73 787.81 838.091 770.411 810.498 769.796 793.1 786.435 775.701 803.074 775.085 830.666 791.724 848.065 792.176 848.537 792.638 848.999 793.11 849.45 776.348 832.178 776.762 804.587 794.034 787.826 802.178 779.923 813.082 775.508 824.43 775.52Z" fill="#FFFFFF" transform="translate(-775.61 -774.49)"/><path d="M823.58 797.2C831.98 797.2 838.39 798.91 842.48 802.69 846.186 806.329 848.223 811.337 848.11 816.53 848.11 824.14 844.99 829.89 839.84 833.67 834.69 837.45 828.07 839 819.94 839L803.59 839 803.59 837.16C809.21 836.76 809.78 836.36 809.78 830.87L809.78 805.37C809.78 799.83 809.21 799.57 804.16 799.17L804.16 797.17ZM815.94 830.29C815.94 835.39 818.18 836.57 823.01 836.57 835.27 836.57 841.16 827.65 841.16 817.57 841.16 810.94 838.57 805.49 833.74 802.46 830.74 800.46 826.74 799.46 822.05 799.46 819.1 799.46 817.47 799.9 816.77 800.34 816.07 800.78 815.94 801.57 815.94 804.07Z" fill="#666766" transform="translate(-775.61 -774.49)"/><path d="M842.48 802.76C839.555 800.241 835.984 798.593 832.17 798 839.17 801.89 844.42 807.34 845.07 815 845.95 825.36 841.07 831.89 835.49 836 837.022 835.33 838.48 834.503 839.84 833.53 844.99 829.78 848.11 824.05 848.11 816.53 848.217 811.359 846.179 806.375 842.48 802.76Z" fill="#414042" transform="translate(-775.61 -774.49)"/></svg>