<svg viewBox="0 0 413.8 267.13" xmlns="http://www.w3.org/2000/svg" xmlns:xlink="http://www.w3.org/1999/xlink" id="Layer_1" overflow="hidden"><defs><linearGradient x1="77.33" y1="-6.94" x2="262.26" y2="189.58" gradientUnits="userSpaceOnUse" id="linear-gradient"><stop offset="0" stop-color="#FFFFFF" stop-opacity="0.7"/><stop offset="0.05" stop-color="#FFFFFF" stop-opacity="0.59"/><stop offset="0.19" stop-color="#FFFFFF" stop-opacity="0.34"/><stop offset="0.31" stop-color="#FFFFFF" stop-opacity="0.16"/><stop offset="0.4" stop-color="#FFFFFF" stop-opacity="0.04"/><stop offset="0.45" stop-color="#FFFFFF" stop-opacity="0"/></linearGradient></defs><g opacity="0.6"><path d="M406.74 230.6C406.74 250.78 390.15 267.13 369.69 267.13L37.05 267.13C16.59 267.13 0 250.77 0 230.6L0 50.97C0 30.8 16.59 14.44 37.05 14.44L369.69 14.44C390.15 14.44 406.74 30.79 406.74 50.97L406.74 230.6Z" fill="#090405"/></g><g><rect x="5.74" y="1.32" rx="37.05" ry="37.05" width="406.74" height="256.29" fill="#EF7823"/><path d="M375.43 258.93 42.79 258.93C21.63 258.93 4.42 241.72 4.42 220.56L4.42 38.37C4.42 17.21 21.63 0 42.79 0L375.43 0C396.59 0 413.8 17.21 413.8 38.37L413.8 220.57C413.8 241.73 396.59 258.94 375.43 258.94ZM42.79 2.63C23.09 2.63 7.06 18.66 7.06 38.37L7.06 220.57C7.06 240.28 23.09 256.31 42.79 256.31L375.43 256.31C395.13 256.31 411.16 240.27 411.16 220.57L411.16 38.37C411.16 18.66 395.13 2.63 375.43 2.63L42.79 2.63Z" fill="#B24A28"/></g><path d="M151.08 51.88C228.39 9.95 365.36 6.99 365.36 6.99L42.79 6.99C25.49 6.99 11.41 21.07 11.41 38.37L11.41 215.17C11.41 215.17 33.28 115.79 151.08 51.88Z" fill="url(#linear-gradient)"/><text transform="translate(86.7 71.65)"><tspan fill="#FFFFFF" font-family="BERNIERSHADE,BERNIER™ SHADE" font-size="36"><tspan x="0" y="0">Gongratulations</tspan></tspan><tspan fill="#FFFFFF" font-family="BERNIERSHADE,BERNIER™ SHADE" font-size="24"><tspan x="-4.43" y="36">this is your discount code</tspan></tspan><tspan fill="#BE1E2D" font-family="DirtyHeadline,Dirty Headline" font-size="36"><tspan x="73.5" y="72">JAM24</tspan></tspan><tspan fill="#FFFFFF" font-family="BERNIERSHADE,BERNIER™ SHADE" font-size="24"><tspan x="-55.03" y="108">Enter from the link below and enjoy</tspan></tspan><tspan fill="#FFFFFF" font-family="BERNIERSHADE,BERNIER™ SHADE" font-size="24"><tspan x="59.58" y="144">your shoping</tspan></tspan></text></svg>